<?xml version="1.0" encoding="UTF-8" standalone="no"?>
<svg
   t="1730793813893"
   class="icon"
   viewBox="0 0 512 512"
   version="1.1"
   p-id="19753"
   width="100"
   height="100"
   id="svg14"
   sodipodi:docname="player_woman.svg"
   inkscape:version="1.4 (86a8ad7, 2024-10-11)"
   xmlns:inkscape="http://www.inkscape.org/namespaces/inkscape"
   xmlns:sodipodi="http://sodipodi.sourceforge.net/DTD/sodipodi-0.dtd"
   xmlns="http://www.w3.org/2000/svg"
   xmlns:svg="http://www.w3.org/2000/svg">
  <defs
     id="defs14" />
  <sodipodi:namedview
     id="namedview14"
     pagecolor="#ffffff"
     bordercolor="#000000"
     borderopacity="0.25"
     inkscape:showpageshadow="2"
     inkscape:pageopacity="0.0"
     inkscape:pagecheckerboard="0"
     inkscape:deskcolor="#d1d1d1"
     inkscape:zoom="1"
     inkscape:cx="100.5"
     inkscape:cy="100.5"
     inkscape:window-width="2560"
     inkscape:window-height="1377"
     inkscape:window-x="-8"
     inkscape:window-y="-8"
     inkscape:window-maximized="1"
     inkscape:current-layer="svg14" />
  <path
     d="m 348.86025,113.552 c -12.21298,-3.618 -28.55347,-12.684 -38.24005,-35.292 -0.704,-1.642 -3.27987,-1.958 -4.51601,-0.56 -8.1043,9.152 -10.79083,29.312 -60.16078,37.3 -42.41936,6.864 -65.9247,30 -64.58732,51.998 v 23.496 c 0,35.05 33.45092,63.464 74.71418,63.464 h 24.77445 c 41.26327,0 74.71419,-28.414 74.71419,-63.464 V 121.46 c -0.003,-3.586 -2.71242,-6.726 -6.69866,-7.908 z"
     fill="#f9d8b7"
     p-id="19754"
     id="path1"
     style="stroke-width:0.542512" />
  <path
     d="M 454.8945,493.356 443.77872,323.854 a 34.484559,29.292 0 0 0 -26.01763,-26.778 l -47.75003,-10.21 a 316.1579,268.552 0 0 1 -24.56724,-6.164 l -21.12492,-8.848 -4.24758,-1.78 A 19.740444,16.768 0 0 1 309.0615,255.036 v -5.778 a 74.443419,63.234 0 0 1 -28.22149,4.7 h -24.77444 c -9.7266,0 -19.00819,-1.596 -27.52926,-4.468 v 5.546 a 19.740444,16.768 0 0 1 -11.00982,15.038 l -3.12918,1.31 -21.02131,8.804 a 301.83761,256.388 0 0 1 -27.10073,6.956 l -46.43854,9.93 a 34.484559,29.292 0 0 0 -26.015279,26.778 l -11.11578,169.504 a 15.215022,12.924 0 0 0 15.19147,13.642 H 439.70067 a 15.212667,12.922 0 0 0 15.19383,-13.642 z"
     fill="#e04e36"
     p-id="19755"
     id="path2"
     style="stroke-width:0.542512" />
  <path
     d="m 278.41248,312.994 14.36033,14.35 c 15.25975,15.25 44.3689,9.56 50.30941,-9.808 2.91726,-9.508 4.92569,-21.388 5.09757,-36.1 -0.90885,-0.254 -1.82947,-0.476 -2.73363,-0.738 l -21.1249,-8.848 -4.24758,-1.78 a 19.723962,16.754 0 0 1 -2.95496,-1.562 z m -84.34896,4.542 c 5.94051,19.368 35.052,25.056 50.31177,9.808 l 14.36033,-14.35 -38.53908,-44.288 a 19.47909,16.546 0 0 1 -2.66769,1.368 l -3.12918,1.31 -21.02132,8.804 c -1.46452,0.44 -2.94081,0.856 -4.4124,1.278 0.17424,14.698 2.18267,26.568 5.09757,36.07 z"
     fill="#fc5d4c"
     p-id="19756"
     id="path3"
     style="stroke-width:0.542512" />
  <path
     d="m 278.41248,312.994 a 84.558512,71.826 0 0 0 -19.67922,46.064 v 147.94 h 20.17133 V 365.058 A 84.574994,71.84 0 0 1 292.0382,326.61 Z"
     fill="#fc5d4c"
     p-id="19757"
     id="path4"
     style="stroke-width:0.542512" />
  <path
     d="m 258.73326,312.994 9.95027,12.286 a 84.629148,71.886 0 0 1 9.72895,-12.286 l 38.70624,-44.482 a 19.70748,16.74 0 0 1 -8.05486,-13.476 v -5.778 a 74.443419,63.234 0 0 1 -28.2215,4.7 h -24.77445 c -9.72658,0 -19.00818,-1.596 -27.52924,-4.468 v 5.546 a 19.731026,16.76 0 0 1 -8.34213,13.67 z"
     fill="#f9d8b7"
     p-id="19758"
     id="path5"
     style="stroke-width:0.542512" />
  <path
     d="m 193.41839,224.996 a 74.240928,63.062 0 0 1 -12.06465,-34.502 v -23.496 c -1.33739,-22 22.16796,-45.136 64.58731,-51.998 49.35818,-7.986 52.05648,-28.138 60.15609,-37.292 1.23848,-1.4 3.82142,-1.084 4.52541,0.562 9.68658,22.604 26.02472,31.666 38.23535,35.284 3.98623,1.182 6.6963,4.32 6.6963,7.908 v 0.738 c 14.7088,1.704 26.50267,11.128 29.55415,23.312 V 107.706 C 385.10835,45 356.59962,15 309.04973,15.452 300.09542,9.0000002 285.96819,5 269.48643,5 191.78904,5 153.86214,53.688 153.86214,107.706 v 69.612 a 59.600409,50.626 0 0 0 39.55625,47.678 z M 385.11071,176.718 V 157.95 c -3.05148,12.184 -14.84535,21.608 -29.55416,23.312 v 9.23 a 74.273892,63.09 0 0 1 -12.05523,34.504 l 1.17021,-0.338 a 59.600409,50.626 0 0 0 40.43918,-47.94 z"
     fill="#e8b16d"
     p-id="19759"
     id="path6"
     style="stroke-width:0.542512" />
  <path
     d="m 355.55655,122.198 v 59.066 c 17.13398,-1.986 30.35,-14.434 30.35,-29.532 -0.003,-15.102 -13.21602,-27.548 -30.35,-29.534 z"
     fill="#f9d8b7"
     p-id="19760"
     id="path7"
     style="stroke-width:0.542512" />
  <path
     d="m 268.94724,219.906 c -7.31554,0 -13.9836,-2.198 -18.29241,-6.032 a 5.8870412,5.0005919 0 1 1 8.51637,-6.906 c 1.59638,1.42 5.00339,2.938 9.7784,2.938 4.77501,0 8.18437,-1.518 9.78075,-2.938 a 5.8863441,5 0 1 1 8.51166,6.906 c -4.30646,3.834 -10.97687,6.032 -18.29477,6.032 z m 43.46241,-71.296 c -0.9324,0 -1.87891,-0.188 -2.75952,-0.586 -1.47159,-0.664 -4.84327,-1.334 -9.06496,-1.334 -4.22169,0 -7.59339,0.67 -9.06497,1.334 a 5.8863441,5 0 1 1 -5.52846,-8.828 c 3.52475,-1.592 8.84364,-2.506 14.59107,-2.506 5.74743,0 11.06633,0.914 14.59107,2.506 a 5.8863441,5 0 0 1 -2.76423,9.414 z m -87.21678,0 a 5.8863441,5 0 0 1 -2.76894,-9.416 c 3.52475,-1.592 8.84364,-2.506 14.59107,-2.506 5.74979,0 11.06868,0.914 14.59107,2.506 a 5.8863441,5 0 0 1 -5.52846,8.828 c -1.46922,-0.664 -4.84092,-1.334 -9.06261,-1.334 -4.22169,0 -7.59339,0.67 -9.06496,1.334 -0.87825,0.4 -1.82478,0.588 -2.75717,0.588 z m 12.76395,19.432 a 7.0636128,5.9999999 0 0 1 -7.06362,-6 v -1.098 a 7.063615,6.0000017 0 1 1 14.12723,0 v 1.098 a 7.0636128,5.9999999 0 0 1 -7.06361,6 z m 61.9832,0.842 a 7.0636128,5.9999999 0 0 1 -7.06361,-6 v -1.098 a 7.063615,6.0000017 0 1 1 14.12723,0 v 1.098 a 7.0636128,5.9999999 0 0 1 -7.06362,6 z m 87.30154,340.338 a 5.8863441,5 0 0 1 -5.88634,-5 V 394.434 a 5.8863525,5.0000071 0 1 1 11.7727,0 v 109.788 a 5.8863441,5 0 0 1 -5.88636,5 z m -236.8806,0 a 5.8863441,5 0 0 1 -5.88634,-5 V 394.434 a 5.8863441,5 0 1 1 11.77267,0 v 109.788 a 5.8863441,5 0 0 1 -5.88633,5 z"
     fill="#231f20"
     p-id="19761"
     id="path8"
     style="stroke-width:0.542512" />
  <path
     d="m 280.84236,258.956 h -24.77445 c -44.44189,0 -80.59816,-30.712 -80.59816,-68.462 v -23.372 c -1.5281,-26.734 26.97123,-50.176 69.37174,-57.036 37.45598,-6.06 45.7463,-19.13 51.79748,-28.674 1.53751,-2.426 2.9926,-4.718 4.76086,-6.718 a 8.4881084,7.2100002 0 0 1 14.75354,1.856 c 8.9284,20.842 23.77141,29.058 34.64703,32.282 6.36666,1.886 10.64485,6.962 10.64485,12.628 v 69.034 c -0.003,37.75 -36.16098,68.462 -80.60289,68.462 z m 26.73578,-173.708 -0.5745,0.906 c -6.76931,10.674 -16.99742,26.804 -59.96066,33.756 -30.83268,4.988 -61.2792,22.676 -59.80996,46.83 l 0.007,0.258 v 23.496 c 0,32.236 30.87505,58.462 68.82547,58.462 h 24.77445 c 37.95045,0 68.82549,-26.226 68.82549,-58.462 V 121.46 c 0,-1.418 -1.10427,-2.7 -2.74774,-3.188 -12.28362,-3.64 -28.63824,-12.332 -39.33962,-33.024 z"
     fill="#231f20"
     p-id="19762"
     id="path9"
     style="stroke-width:0.542512" />
  <path
     d="M 439.70303,512 H 97.899501 a 21.183776,17.994 0 0 1 -15.33039,-5.608 21.174357,17.986 0 0 1 -5.73801,-13.314 l 11.11342,-169.504 a 40.189604,34.138 0 0 1 30.455939,-31.348 l 46.43855,-9.93 c 8.82951,-1.888 17.65903,-4.15 26.24838,-6.722 l 23.83498,-9.984 a 13.762273,11.69 0 0 0 7.7276,-10.552 v -5.546 a 5.881635,4.996 0 0 1 8.05722,-4.646 68.474667,58.164 0 0 0 25.35837,4.114 h 24.77445 c 8.97079,0 17.71318,-1.456 25.9941,-4.328 a 5.8910532,5.004 0 0 1 5.50962,0.478 5.8910532,5.004 0 0 1 2.60176,4.15 v 5.778 a 13.762273,11.69 0 0 0 7.72524,10.552 l 25.02873,10.482 a 309.68528,263.054 0 0 0 23.74787,5.944 l 47.75002,10.208 a 40.199021,34.146 0 0 1 30.45594,31.35 l 11.11578,169.502 A 21.176712,17.988 0 0 1 455.02871,506.39 21.167294,17.98 0 0 1 439.70303,512 Z M 234.37322,256.432 a 25.443134,21.612 0 0 1 -14.24261,18.124 l -24.14814,10.116 a 5.8086441,4.9339998 0 0 1 -0.63807,0.228 309.81006,263.16 0 0 1 -27.63051,7.092 l -46.43854,9.93 A 28.478133,24.19 0 0 0 99.698371,324.13 l -11.11342,169.504 a 9.2344968,7.8440001 0 0 0 2.53584,5.884 9.243915,7.8520002 0 0 0 6.77635,2.48 H 439.70067 c 2.58999,0 4.99632,-0.88 6.77636,-2.478 a 9.2368514,7.8460001 0 0 0 2.53819,-5.886 L 437.89944,324.132 A 28.47107,24.184 0 0 0 416.32482,301.924 L 368.5748,291.716 c -8.41512,-1.8 -16.83495,-3.912 -25.02875,-6.28 a 5.9593346,5.0619998 0 0 1 -0.70635,-0.25 L 317.4672,274.56 a 25.447844,21.616 0 0 1 -14.25438,-18.286 80.172008,68.1 0 0 1 -22.37281,2.684 h -24.77444 a 80.252063,68.168 0 0 1 -21.69235,-2.526 z"
     fill="#231f20"
     p-id="19763"
     id="path10"
     style="stroke-width:0.542512" />
  <path
     d="m 314.86544,341.056 a 34.828322,29.584 0 0 1 -26.57802,-10.472 l -14.36268,-14.35 a 5.8863441,5 0 0 1 -0.24723,-6.21 l 38.70624,-44.482 a 5.8863441,5 0 0 1 8.22676,-1.054 c 0.7817,0.49 1.43627,0.84 2.06493,1.104 l 25.00989,10.474 c 0.33435,0.092 0.67104,0.18 1.00775,0.268 0.44265,0.116 0.8853,0.232 1.32325,0.356 a 5.8886987,5.002 0 0 1 4.04745,4.798 c -0.16011,13.842 -1.93779,26.396 -5.28594,37.31 a 34.894248,29.64 0 0 1 -26.0718,21.504 35.202692,29.902 0 0 1 -7.8406,0.754 z m -28.94433,-28.278 11.33709,11.33 c 5.70976,5.706 14.24967,8.112 22.82254,6.448 8.60583,-1.672 15.0761,-7.01 17.3082,-14.278 2.82074,-9.2 4.44066,-19.734 4.82681,-31.354 l -23.49359,-9.84 z m -63.6408,28.278 a 35.200338,29.9 0 0 1 -7.83825,-0.754 34.913084,29.656 0 0 1 -26.07651,-21.504 c -3.34344,-10.906 -5.12348,-23.448 -5.28594,-37.282 a 5.881635,4.996 0 0 1 4.00743,-4.788 l 0.79111,-0.226 c 1.07132,-0.306 2.14499,-0.612 3.21159,-0.93 l 23.83263,-9.982 c 0.58628,-0.246 1.19612,-0.56 1.86951,-0.964 a 5.8863441,5 0 0 1 8.13492,1.11 l 38.53908,44.29 c 1.62462,1.868 1.52103,4.44 -0.24723,6.21 l -14.36032,14.35 a 34.840094,29.594 0 0 1 -26.57802,10.47 z m -22.52115,-24.78 c 2.22973,7.268 8.70001,12.606 17.30584,14.278 8.59172,1.67 17.11749,-0.744 22.82253,-6.448 l 11.33711,-11.33 -32.67863,-37.556 -22.56354,9.452 a 6.1382795,5.2139999 0 0 1 -0.64042,0.23 l -0.40734,0.122 c 0.39085,11.582 2.01078,22.082 4.82445,31.252 z"
     fill="#231f20"
     p-id="19764"
     id="path11"
     style="stroke-width:0.542512" />
  <path
     d="m 278.90459,512 h -20.17133 a 5.8863441,5 0 0 1 -5.88634,-5 V 359.06 a 90.60261,76.96 0 0 1 21.04956,-49.27 5.8839896,4.998 0 0 1 4.49011,-1.794 c 1.6835,0.076 3.38582,0.638 4.5113,1.762 l 13.6257,13.616 c 1.66936,1.668 1.86478,4.066 0.48504,5.916 a 78.554441,66.726 0 0 0 -12.21771,35.772 v 141.94 A 5.8863441,5 0 0 1 278.90459,512 Z m -14.28498,-10 h 8.39863 V 365.06 a 90.284745,76.69 0 0 1 11.80094,-37.944 l -6.15947,-6.154 A 78.848759,66.976 0 0 0 264.62196,359.06 V 502 Z"
     fill="#231f20"
     p-id="19765"
     id="path12"
     style="stroke-width:0.542512" />
  <path
     d="m 268.68353,330.282 a 5.8863441,5 0 0 1 -4.84799,-2.166 l -9.89377,-12.218 -38.47785,-44.22 a 5.8934078,5.0060001 0 0 1 1.33267,-7.054 13.858809,11.772 0 0 0 5.85809,-9.588 v -5.546 a 5.881635,4.996 0 0 1 8.05722,-4.646 68.474667,58.164 0 0 0 25.35837,4.114 h 24.77445 c 8.97079,0 17.71318,-1.456 25.9941,-4.328 a 5.8910532,5.004 0 0 1 5.50962,0.478 5.8910532,5.004 0 0 1 2.60176,4.15 v 5.778 c 0,3.7 2.11437,7.232 5.66031,9.45 1.25732,0.788 2.09789,1.966 2.32863,3.28 0.23546,1.312 -0.1554,2.65 -1.08544,3.718 l -38.70624,44.482 c -0.0707,0.08 -0.14355,0.16 -0.21897,0.236 a 78.820505,66.952 0 0 0 -9.05084,11.43 5.8863441,5 0 0 1 -5.19412,2.65 z m -40.60635,-60.93 35.3887,40.67 c 0.0401,0.044 0.0777,0.092 0.11535,0.138 l 4.77266,5.892 a 88.773132,75.406 0 0 1 5.42721,-6.148 l 35.50878,-40.806 a 25.702133,21.832 0 0 1 -6.07236,-12.826 80.18849,68.114 0 0 1 -22.37517,2.684 H 256.0679 a 80.148462,68.08 0 0 1 -21.6947,-2.524 25.652688,21.79 0 0 1 -6.29604,12.92 z m -34.66115,-39.356 c -0.66163,0 -1.33032,-0.094 -1.97781,-0.292 -25.99645,-7.886 -43.46241,-28.94 -43.46241,-52.386 V 107.706 C 147.97581,54.096 185.54952,0 269.48643,0 c 16.3452,0 31.36715,3.7899998 41.63765,10.45 20.63988,0.178 37.72911,5.838 50.82739,16.84 19.27425,16.19 29.04558,43.244 29.04558,80.414 v 37.804 a 5.8863441,5 0 0 1 -5.26945,4.972 5.8698624,4.986 0 0 1 -6.37373,-3.932 29.243358,24.84 0 0 0 -24.59079,-19.398 5.8863441,5 0 0 1 -5.09052,-4.954 v -0.736 c 0,-1.418 -1.10427,-2.7 -2.74774,-3.188 -12.28598,-3.64 -28.64295,-12.332 -39.34433,-33.026 l -0.57685,0.908 c -6.76695,10.674 -16.99742,26.804 -59.9583,33.756 -30.83268,4.988 -61.2792,22.676 -59.80997,46.83 l 0.007,0.258 v 23.496 a 68.488794,58.176 0 0 0 11.11106,31.778 5.8863441,5 0 0 1 -4.93746,7.724 z M 269.48643,10 c -50.62255,0 -109.73794,25.588 -109.73794,97.706 v 69.612 c 0,14.094 7.69464,27.134 20.19723,35.64 a 80.172008,68.1 0 0 1 -4.47833,-22.466 v -23.37 c -1.52809,-26.734 26.97123,-50.176 69.37175,-57.036 37.45597,-6.06 45.74631,-19.13 51.7951,-28.674 1.53516,-2.422 2.99027,-4.712 4.75617,-6.71 a 8.4928175,7.2140002 0 0 1 14.76531,1.856 c 8.93076,20.836 23.76906,29.052 34.64468,32.274 a 15.860166,13.472 0 0 1 10.0986,9.166 40.968956,34.8 0 0 1 18.32536,8.686 v -18.976 c 0,-34.4 -8.59641,-59.062 -25.55143,-73.304 -11.22879,-9.43 -26.31668,-14.114 -44.55257,-13.95 h -0.0659 c -1.39389,0 -2.74303,-0.42 -3.80493,-1.186 C 297.0722,13.378 284.03747,10 269.48643,10 Z m 74.01489,219.996 a 5.8886987,5.002 0 0 1 -4.9351,-7.724 68.507625,58.192 0 0 0 11.10399,-31.778 v -9.23 a 5.8863441,5 0 0 1 5.09052,-4.954 29.248067,24.844 0 0 0 24.59079,-19.398 5.8863441,5 0 0 1 11.64318,1.04 v 18.768 a 65.460858,55.604 0 0 1 -44.43483,52.674 l -1.16315,0.336 c -0.6216,0.18 -1.26202,0.266 -1.8954,0.266 z m 17.94158,-44.654 v 5.15 c 0,8.062 -1.66937,15.992 -4.89744,23.47 a 53.695232,45.61 0 0 0 22.6789,-37.186 40.968956,34.8 0 0 1 -17.78146,8.566 z"
     fill="#231f20"
     p-id="19766"
     id="path13"
     style="stroke-width:0.542512" />
  <path
     d="m 355.55655,186.262 a 5.8863441,5 0 0 1 -5.88634,-5 v -59.064 a 5.8792805,4.994 0 0 1 6.67983,-4.954 c 20.20428,2.342 35.4405,17.168 35.4405,34.486 0,17.32 -15.23622,32.146 -35.4405,34.488 a 5.9875892,5.0859999 0 0 1 -0.79349,0.044 z m 5.88635,-57.632 v 46.198 c 10.94625,-3.658 18.5773,-12.754 18.5773,-23.1 0,-10.346 -7.63105,-19.44 -18.5773,-23.098 z"
     fill="#231f20"
     p-id="19767"
     id="path14"
     style="stroke-width:0.542512" />
</svg>
