<?xml version="1.0" encoding="UTF-8" standalone="no"?>
<!-- Created with Inkscape (http://www.inkscape.org/) -->

<svg
   width="74"
   height="105"
   viewBox="0 0 19.579167 27.781249"
   version="1.1"
   id="svg1"
   inkscape:version="1.4 (86a8ad7, 2024-10-11)"
   sodipodi:docname="15.svg"
   xmlns:inkscape="http://www.inkscape.org/namespaces/inkscape"
   xmlns:sodipodi="http://sodipodi.sourceforge.net/DTD/sodipodi-0.dtd"
   xmlns="http://www.w3.org/2000/svg"
   xmlns:svg="http://www.w3.org/2000/svg">
  <sodipodi:namedview
     id="namedview1"
     pagecolor="#ffffff"
     bordercolor="#000000"
     borderopacity="0.25"
     inkscape:showpageshadow="2"
     inkscape:pageopacity="0.0"
     inkscape:pagecheckerboard="0"
     inkscape:deskcolor="#d1d1d1"
     inkscape:document-units="mm"
     inkscape:zoom="0.98603159"
     inkscape:cx="397.0461"
     inkscape:cy="236.80783"
     inkscape:window-width="2560"
     inkscape:window-height="1377"
     inkscape:window-x="-8"
     inkscape:window-y="-8"
     inkscape:window-maximized="1"
     inkscape:current-layer="club" />
  <defs
     id="defs1" />
  <g
     inkscape:label="club1"
     inkscape:groupmode="layer"
     id="club"
     transform="translate(-81.85335,-116.02149)">
    <g
       id="rect"
       transform="matrix(0.11458465,0,0,0.11314009,81.996581,142.78138)">
      <path
         style="fill:#ffffff;stroke:#000000;stroke-width:2.5"
         d="m 0,0 c 0,3.78 3.09,6.87 6.87,6.87 h 152.845 c 3.77,0 6.86,-3.09 6.86,-6.87 v -228.4 c 0,-3.78 -3.09,-6.87 -6.86,-6.87 H 6.87 c -3.78,0 -6.87,3.09 -6.87,6.87 z"
         id="path1" />
    </g>
    <g
       id="number"
       transform="matrix(1.1166666,0,0,0.46498401,81.132381,131.44648)"
       style="fill:#ff0000">
      <text
         transform="scale(0.56453,1.05741)"
         font-family="'Bitstream Vera Serif'"
         font-weight="bold"
         font-size="43px"
         id="5"
         style="fill:#ff0000">5</text>
    </g>
    <g
       id="use825"
       transform="matrix(-0.66955181,0,0,-0.59980921,95.388192,138.26632)">
      <path
         style="fill:#e6180a"
         d="m -7.67,3.93 c 0.01,-4.71 5.91,-8.14 7.64,-11.87 1.75,3.72 7.66,7.12 7.7,11.83 C 7.68,6.11 5.96,7.92 3.85,7.92 1.73,7.92 0,6.13 0,3.91 0,6.14 -1.71,7.94 -3.82,7.94 -5.94,7.95 -7.66,6.15 -7.67,3.93 Z"
         id="path3" />
    </g>
  </g>
</svg>
