<?xml version="1.0" encoding="UTF-8" standalone="no"?>
<!-- Created with Inkscape (http://www.inkscape.org/) -->

<svg
   width="74"
   height="105"
   viewBox="0 0 19.579166 27.78125"
   version="1.1"
   id="svg1"
   inkscape:version="1.4 (86a8ad7, 2024-10-11)"
   sodipodi:docname="back.svg"
   xmlns:inkscape="http://www.inkscape.org/namespaces/inkscape"
   xmlns:sodipodi="http://sodipodi.sourceforge.net/DTD/sodipodi-0.dtd"
   xmlns:xlink="http://www.w3.org/1999/xlink"
   xmlns="http://www.w3.org/2000/svg"
   xmlns:svg="http://www.w3.org/2000/svg">
  <sodipodi:namedview
     id="namedview1"
     pagecolor="#ffffff"
     bordercolor="#000000"
     borderopacity="0.25"
     inkscape:showpageshadow="2"
     inkscape:pageopacity="0.0"
     inkscape:pagecheckerboard="0"
     inkscape:deskcolor="#d1d1d1"
     inkscape:document-units="mm"
     inkscape:zoom="0.98603159"
     inkscape:cx="397.0461"
     inkscape:cy="236.80783"
     inkscape:window-width="2560"
     inkscape:window-height="1377"
     inkscape:window-x="-8"
     inkscape:window-y="-8"
     inkscape:window-maximized="1"
     inkscape:current-layer="club" />
  <defs
     id="defs1" />
  <g
     inkscape:label="club1"
     inkscape:groupmode="layer"
     id="club"
     transform="translate(-81.85335,-116.02149)">
    <g
       id="back"
       transform="matrix(0.11558974,0,0,0.11307274,43.267494,32.781065)">
      <g
         id="use1397"
         transform="translate(335.14999,972.54999)">
        <path
           style="fill:#ffffff;stroke:#000000;stroke-width:2.5"
           d="m 0,0 c 0,3.78 3.09,6.87 6.87,6.87 h 152.845 c 3.77,0 6.86,-3.09 6.86,-6.87 v -228.4 c 0,-3.78 -3.09,-6.87 -6.86,-6.87 H 6.87 c -3.78,0 -6.87,3.09 -6.87,6.87 z"
           id="path52" />
      </g>
      <rect
         style="fill:#0062ff;fill-opacity:1;fill-rule:evenodd;stroke:none;stroke-width:0.716133;stroke-linecap:butt;stroke-linejoin:round;stroke-miterlimit:4;stroke-opacity:1"
         width="131.9648"
         height="177.42918"
         x="358.44342"
         y="761.04138"
         transform="matrix(1.157448,0,0,1.291938,-72.77354,-239.377)"
         ry="2.7421434"
         rx="2.7421434"
         id="rect1397" />
      <rect
         width="131.9648"
         height="177.42918"
         rx="2.9805906"
         ry="2.8864667"
         x="358.44342"
         y="761.04138"
         transform="matrix(1.064852,0,0,1.227341,-33.46908,-184.4809)"
         style="fill:#0062ff;fill-opacity:1;fill-rule:evenodd;stroke:#ffffff;stroke-width:1.31317;stroke-linecap:butt;stroke-linejoin:round;stroke-miterlimit:4;stroke-opacity:1"
         id="rect1398" />
      <rect
         width="131.9648"
         height="177.42918"
         rx="0"
         ry="0"
         x="358.44342"
         y="761.04138"
         transform="matrix(0.901291,0,0,1.107675,35.9519,-82.79633)"
         style="fill:#0062ff;fill-opacity:1;fill-rule:evenodd;stroke:#ffffff;stroke-width:1.25207;stroke-linecap:butt;stroke-linejoin:round;stroke-miterlimit:4;stroke-opacity:1"
         id="rect1399" />
      <rect
         width="131.9648"
         height="177.42918"
         rx="0"
         ry="0"
         x="358.44342"
         y="761.04138"
         transform="matrix(0.829188,0,0,1.052291,66.55439,-35.73366)"
         style="fill:#0062ff;fill-opacity:1;fill-rule:evenodd;stroke:#ffffff;stroke-width:1.33928;stroke-linecap:butt;stroke-linejoin:round;stroke-miterlimit:4;stroke-opacity:1"
         id="rect1400" />
      <g
         id="back_c1">
        <g
           id="back_c2">
          <path
             d="m 372.548,792.736 c -1.23,0 -2.22,0.99 -2.22,2.22 0,1.22 0.99,2.22 2.22,2.22 1.22,0 2.21,-1 2.21,-2.22 0,-1.23 -0.99,-2.22 -2.21,-2.22 z m -0.03,1.14 1.11,1.1 -1.06,1.06 -1.11,-1.11 z"
             id="use1400"
             style="fill:#ffffff;fill-opacity:1;fill-rule:evenodd;stroke:none;stroke-width:2.39307;stroke-linecap:round;stroke-linejoin:round;stroke-miterlimit:40;stroke-dashoffset:0;stroke-opacity:1" />
          <path
             d="m 379.641,792.736 c -1.23,0 -2.22,0.99 -2.22,2.22 0,1.22 0.99,2.22 2.22,2.22 1.22,0 2.21,-1 2.21,-2.22 0,-1.23 -0.99,-2.22 -2.21,-2.22 z m -0.03,1.14 1.11,1.1 -1.06,1.06 -1.11,-1.11 z"
             id="use1401"
             style="fill:#ffffff;fill-opacity:1;fill-rule:evenodd;stroke:none;stroke-width:2.39307;stroke-linecap:round;stroke-linejoin:round;stroke-miterlimit:40;stroke-dashoffset:0;stroke-opacity:1" />
          <path
             d="m 386.733,792.736 c -1.23,0 -2.22,0.99 -2.22,2.22 0,1.22 0.99,2.22 2.22,2.22 1.22,0 2.21,-1 2.21,-2.22 0,-1.23 -0.99,-2.22 -2.21,-2.22 z m -0.03,1.14 1.11,1.1 -1.06,1.06 -1.11,-1.11 z"
             id="use1402"
             style="fill:#ffffff;fill-opacity:1;fill-rule:evenodd;stroke:none;stroke-width:2.39307;stroke-linecap:round;stroke-linejoin:round;stroke-miterlimit:40;stroke-dashoffset:0;stroke-opacity:1" />
        </g>
        <g
           id="back_c3">
          <path
             d="m 379.6408,785.6437 c -1.23,0 -2.22,0.99 -2.22,2.22 0,1.22 0.99,2.22 2.22,2.22 1.22,0 2.21,-1 2.21,-2.22 0,-1.23 -0.99,-2.22 -2.21,-2.22 z m -0.03,1.14 1.11,1.1 -1.06,1.06 -1.11,-1.11 z"
             id="use1403"
             style="fill:#ffffff;fill-opacity:1;fill-rule:evenodd;stroke:none;stroke-width:2.39307;stroke-linecap:round;stroke-linejoin:round;stroke-miterlimit:40;stroke-dashoffset:0;stroke-opacity:1" />
          <path
             d="m 386.7332,778.5512 c -1.23,0 -2.22,0.99 -2.22,2.22 0,1.22 0.99,2.22 2.22,2.22 1.22,0 2.21,-1 2.21,-2.22 0,-1.23 -0.99,-2.22 -2.21,-2.22 z m -0.03,1.14 1.11,1.1 -1.06,1.06 -1.11,-1.11 z"
             id="use1404"
             style="fill:#ffffff;fill-opacity:1;fill-rule:evenodd;stroke:none;stroke-width:2.39307;stroke-linecap:round;stroke-linejoin:round;stroke-miterlimit:40;stroke-dashoffset:0;stroke-opacity:1" />
          <path
             d="m 386.7332,785.6437 c -1.23,0 -2.22,0.99 -2.22,2.22 0,1.22 0.99,2.22 2.22,2.22 1.22,0 2.21,-1 2.21,-2.22 0,-1.23 -0.99,-2.22 -2.21,-2.22 z m -0.03,1.14 1.11,1.1 -1.06,1.06 -1.11,-1.11 z"
             id="use1405"
             style="fill:#ffffff;fill-opacity:1;fill-rule:evenodd;stroke:none;stroke-width:2.39307;stroke-linecap:round;stroke-linejoin:round;stroke-miterlimit:40;stroke-dashoffset:0;stroke-opacity:1" />
        </g>
        <g
           id="back_c4">
          <g
             id="back_c5">
            <path
               d="m 393.8258,771.459 c -1.23,0 -2.22,0.99 -2.22,2.22 0,1.22 0.99,2.22 2.22,2.22 1.22,0 2.21,-1 2.21,-2.22 0,-1.23 -0.99,-2.22 -2.21,-2.22 z m -0.03,1.14 1.11,1.1 -1.06,1.06 -1.11,-1.11 z"
               id="use1406"
               style="fill:#ffffff;fill-opacity:1;fill-rule:evenodd;stroke:none;stroke-width:2.39307;stroke-linecap:round;stroke-linejoin:round;stroke-miterlimit:40;stroke-dashoffset:0;stroke-opacity:1" />
            <path
               d="m 400.9181,771.459 c -1.23,0 -2.22,0.99 -2.22,2.22 0,1.22 0.99,2.22 2.22,2.22 1.22,0 2.21,-1 2.21,-2.22 0,-1.23 -0.99,-2.22 -2.21,-2.22 z m -0.03,1.14 1.11,1.1 -1.06,1.06 -1.11,-1.11 z"
               id="use1407"
               style="fill:#ffffff;fill-opacity:1;fill-rule:evenodd;stroke:none;stroke-width:2.39307;stroke-linecap:round;stroke-linejoin:round;stroke-miterlimit:40;stroke-dashoffset:0;stroke-opacity:1" />
            <path
               d="m 408.0106,771.459 c -1.23,0 -2.22,0.99 -2.22,2.22 0,1.22 0.99,2.22 2.22,2.22 1.22,0 2.21,-1 2.21,-2.22 0,-1.23 -0.99,-2.22 -2.21,-2.22 z m -0.03,1.14 1.11,1.1 -1.06,1.06 -1.11,-1.11 z"
               id="use1408"
               style="fill:#ffffff;fill-opacity:1;fill-rule:evenodd;stroke:none;stroke-width:2.39307;stroke-linecap:round;stroke-linejoin:round;stroke-miterlimit:40;stroke-dashoffset:0;stroke-opacity:1" />
            <path
               d="m 415.103,771.459 c -1.23,0 -2.22,0.99 -2.22,2.22 0,1.22 0.99,2.22 2.22,2.22 1.22,0 2.21,-1 2.21,-2.22 0,-1.23 -0.99,-2.22 -2.21,-2.22 z m -0.03,1.14 1.11,1.1 -1.06,1.06 -1.11,-1.11 z"
               id="use1409"
               style="fill:#ffffff;fill-opacity:1;fill-rule:evenodd;stroke:none;stroke-width:2.39307;stroke-linecap:round;stroke-linejoin:round;stroke-miterlimit:40;stroke-dashoffset:0;stroke-opacity:1" />
          </g>
          <use
             transform="translate(0,7.0926)"
             xlink:href="#back_c5"
             id="use1410" />
          <use
             transform="translate(1.4161e-4,14.185)"
             xlink:href="#back_c5"
             id="use1411" />
          <use
             transform="translate(0,21.2775)"
             xlink:href="#back_c5"
             id="use1412" />
          <use
             transform="translate(1.4161e-4,28.3699)"
             xlink:href="#back_c5"
             id="use1413" />
        </g>
        <use
           transform="translate(0,35.4623)"
           xlink:href="#back_c5"
           id="use1414" />
        <use
           transform="translate(1.4161e-4,42.5548)"
           xlink:href="#back_c5"
           id="use1415" />
        <use
           transform="translate(0,49.6472)"
           xlink:href="#back_c5"
           id="use1416" />
        <use
           transform="translate(-21.2773,56.7397)"
           xlink:href="#back_c4"
           id="use1417" />
        <use
           transform="rotate(180,393.8205,809.14)"
           xlink:href="#back_c3"
           id="use1418" />
        <use
           transform="translate(1.477e-4,7.0926)"
           xlink:href="#back_c2"
           id="use1419" />
        <use
           transform="translate(0,14.185)"
           xlink:href="#back_c2"
           id="use1420" />
        <use
           transform="translate(1.477e-4,21.2775)"
           xlink:href="#back_c2"
           id="use1421" />
        <use
           transform="translate(0,28.3699)"
           xlink:href="#back_c2"
           id="use1422" />
      </g>
      <rect
         width="28.4"
         height="6.5999999"
         x="369.5"
         y="856.09998"
         style="fill:#0062ff;stroke:none"
         id="rect1422" />
      <use
         transform="matrix(1,0,0,-1,0,1717.575)"
         xlink:href="#back_c1"
         id="use1423" />
      <use
         transform="matrix(-1,0,0,1,837.289,0)"
         xlink:href="#back_c1"
         id="use1424" />
      <rect
         width="28.4"
         height="6.5999999"
         x="440.29999"
         y="855.5"
         style="fill:#0062ff;stroke:none"
         id="rect1424" />
      <use
         transform="rotate(180,418.6445,858.7875)"
         xlink:href="#back_c1"
         id="use1425" />
      <path
         d="m 418.45,832.87 -1.61,0.58 c -1.01,0.51 -2.11,1.32 -2.44,1.79 -0.56,0.8 -0.64,0.8 -1.51,0.2 -1.38,-0.97 -1.66,-0.79 -1.44,0.9 0.2,1.47 0.16,1.52 -0.96,1.52 -1.39,0 -3,1.12 -4.24,2.94 -1.68,2.47 -0.64,7.28 1.7,9.12 1.48,1.17 2.11,0.6 0.74,-0.85 -1.47,-0.96 -2.59,-4.67 -1.99,-4.67 0.14,0 0.61,0.22 1.04,0.49 0.65,0.4 0.92,0.37 1.49,-0.2 0.61,-0.62 0.62,-0.69 0.05,-0.69 -1.15,0 -1.54,-2.43 -0.59,-3.69 0.58,-0.76 2.3,-1.51 3.45,-1.51 1.74,0 2.79,2.68 1.21,3.09 -0.44,0.11 -0.8,0.37 -0.8,0.57 0,0.64 1.27,0.88 2.04,0.4 1,-0.62 0.99,-0.63 1.54,0.69 0.26,0.63 0.98,1.64 1.6,2.22 l 0.72,0.7 v -2.61 c -0.11,-0.43 -0.21,-0.83 -0.25,-1.26 -0.05,-0.68 -2.96,-3.8 -3.53,-3.8 -0.21,0 -0.82,-0.47 -1.35,-1.05 l -0.97,-1.05 1.29,0.29 c 1.14,0.24 1.35,0.15 1.68,-0.72 0.47,-1.25 1.75,-2.03 3.13,-2.18 z m -0.2,1.98 c -1.11,0.05 -2.72,1.83 -2.36,3.27 l 0.25,0.99 1.63,-1.47 c 0.34,-0.32 0.5,-0.54 0.68,-0.78 v -1.96 c -0.06,-0.02 -0.12,-0.05 -0.2,-0.05 z m -5.61,11.26 c -0.29,-0.07 -0.49,0.19 -0.49,0.83 0,0.55 -0.18,1.12 -0.4,1.26 -0.22,0.14 -0.83,0.91 -0.83,1.44 l 0.06,0.83 3.07,-1.03 c 1.49,-0.51 2.97,-1.01 3.3,-1.13 0.4,-0.14 0.21,-0.32 -0.56,-0.52 -0.71,-0.19 -1.45,-0.13 -1.89,0.15 -0.6,0.38 -0.8,0.28 -1.23,-0.62 -0.36,-0.72 -0.74,-1.13 -1.03,-1.21 z m -4.32,0.29 c -0.8,0 -0.71,0.31 0.43,1.67 0.55,0.66 1,1.51 1,1.9 0,0.94 -1.5,2.83 -2.23,2.83 -0.76,0 -0.73,0.76 0.03,1.05 0.36,0.14 0.6,0.75 0.6,1.51 0,0.7 0.21,1.5 0.48,1.76 0.38,0.38 0.64,-0.15 1.19,-2.42 0.38,-1.6 0.7,-3.64 0.71,-4.55 0.02,-1.75 -1.16,-3.75 -2.21,-3.75 z m -3.79,0.46 c -0.29,0.1 -0.97,0.46 -1.6,1.11 -0.73,1.2 -0.88,1.59 -0.91,2.9 -0.03,0.95 0.11,2.07 0.31,2.49 0.3,0.65 0.22,0.73 -0.51,0.54 -1.11,-0.29 -1.6,0.46 -0.73,1.1 0.91,0.67 0.84,0.98 -0.54,2.4 l -0.95,0.97 h 1.1 c 0.02,-0.67 1.16,-1.03 2.64,-0.63 0.85,0.22 1.21,0.44 1.2,0.63 h 2.99 l -1.09,-0.9 c -0.89,-0.73 -1,-1.01 -0.6,-1.42 0.41,-0.41 0.36,-0.62 -0.29,-1.1 -0.75,-0.56 -0.75,-0.63 -0.1,-1 0.76,-0.43 0.95,-1.75 0.3,-2.15 -0.22,-0.14 -0.4,0.04 -0.4,0.39 0,0.85 -1.07,1.22 -1.81,0.61 -0.33,-0.27 -0.59,-0.94 -0.59,-1.48 0,-1.14 1.05,-3.32 1.6,-3.32 0.22,0 0.4,-0.27 0.4,-0.6 0,-0.45 -0.13,-0.63 -0.42,-0.54 z m 13.92,3.3 -0.55,0.84 c -0.38,0.58 -0.66,1.67 -0.63,2.42 0.05,1.5 -0.88,1.96 -1.3,0.64 -0.24,-0.74 -1.27,-1.41 -2.89,-1.86 -0.83,-0.23 -0.85,-0.17 -0.4,1.02 0.26,0.7 0.97,1.52 1.57,1.83 1.57,0.81 1.43,1.75 -0.25,1.75 -0.76,0 -1.81,0.37 -2.41,0.84 l -0.94,0.73 h 4.15 c -0.04,-0.13 0.27,-0.28 1.14,-0.53 1.24,-0.36 1.67,-0.73 1.95,-1.65 0.2,-0.66 0.46,-1.46 0.56,-1.79 z m -1.66,5.45 c 0.3,0.04 0.56,0.22 0.56,0.54 0,0.68 -1.08,1.16 -1.41,0.62 -0.13,-0.21 -0.12,-0.55 0.01,-0.77 0.19,-0.3 0.54,-0.42 0.84,-0.39 z"
         id="use1426"
         style="fill:#ffffff;fill-opacity:1" />
      <path
         d="m 418.422,832.87 1.61,0.58 c 1.01,0.51 2.11,1.32 2.44,1.79 0.56,0.8 0.64,0.8 1.51,0.2 1.38,-0.97 1.66,-0.79 1.44,0.9 -0.2,1.47 -0.16,1.52 0.96,1.52 1.39,0 3,1.12 4.24,2.94 1.68,2.47 0.64,7.28 -1.7,9.12 -1.48,1.17 -2.11,0.6 -0.74,-0.85 1.47,-0.96 2.59,-4.67 1.99,-4.67 -0.14,0 -0.61,0.22 -1.04,0.49 -0.65,0.4 -0.92,0.37 -1.49,-0.2 -0.61,-0.62 -0.62,-0.69 -0.05,-0.69 1.15,0 1.54,-2.43 0.59,-3.69 -0.58,-0.76 -2.3,-1.51 -3.45,-1.51 -1.74,0 -2.79,2.68 -1.21,3.09 0.44,0.11 0.8,0.37 0.8,0.57 0,0.64 -1.27,0.88 -2.04,0.4 -1,-0.62 -0.99,-0.63 -1.54,0.69 -0.26,0.63 -0.98,1.64 -1.6,2.22 l -0.72,0.7 v -2.61 c 0.11,-0.43 0.21,-0.83 0.25,-1.26 0.05,-0.68 2.96,-3.8 3.53,-3.8 0.21,0 0.82,-0.47 1.35,-1.05 l 0.97,-1.05 -1.29,0.29 c -1.14,0.24 -1.35,0.15 -1.68,-0.72 -0.47,-1.25 -1.75,-2.03 -3.13,-2.18 z m 0.2,1.98 c 1.11,0.05 2.72,1.83 2.36,3.27 l -0.25,0.99 -1.63,-1.47 c -0.34,-0.32 -0.5,-0.54 -0.68,-0.78 v -1.96 c 0.06,-0.02 0.12,-0.05 0.2,-0.05 z m 5.61,11.26 c 0.29,-0.07 0.49,0.19 0.49,0.83 0,0.55 0.18,1.12 0.4,1.26 0.22,0.14 0.83,0.91 0.83,1.44 l -0.06,0.83 -3.07,-1.03 c -1.49,-0.51 -2.97,-1.01 -3.3,-1.13 -0.4,-0.14 -0.21,-0.32 0.56,-0.52 0.71,-0.19 1.45,-0.13 1.89,0.15 0.6,0.38 0.8,0.28 1.23,-0.62 0.36,-0.72 0.74,-1.13 1.03,-1.21 z m 4.32,0.29 c 0.8,0 0.71,0.31 -0.43,1.67 -0.55,0.66 -1,1.51 -1,1.9 0,0.94 1.5,2.83 2.23,2.83 0.76,0 0.73,0.76 -0.03,1.05 -0.36,0.14 -0.6,0.75 -0.6,1.51 0,0.7 -0.21,1.5 -0.48,1.76 -0.38,0.38 -0.64,-0.15 -1.19,-2.42 -0.38,-1.6 -0.7,-3.64 -0.71,-4.55 -0.02,-1.75 1.16,-3.75 2.21,-3.75 z m 3.79,0.46 c 0.29,0.1 0.97,0.46 1.6,1.11 0.73,1.2 0.88,1.59 0.91,2.9 0.03,0.95 -0.11,2.07 -0.31,2.49 -0.3,0.65 -0.22,0.73 0.51,0.54 1.11,-0.29 1.6,0.46 0.73,1.1 -0.91,0.67 -0.84,0.98 0.54,2.4 l 0.95,0.97 h -1.1 c -0.02,-0.67 -1.16,-1.03 -2.64,-0.63 -0.85,0.22 -1.21,0.44 -1.2,0.63 h -2.99 l 1.09,-0.9 c 0.89,-0.73 1,-1.01 0.6,-1.42 -0.41,-0.41 -0.36,-0.62 0.29,-1.1 0.75,-0.56 0.75,-0.63 0.1,-1 -0.76,-0.43 -0.95,-1.75 -0.3,-2.15 0.22,-0.14 0.4,0.04 0.4,0.39 0,0.85 1.07,1.22 1.81,0.61 0.33,-0.27 0.59,-0.94 0.59,-1.48 0,-1.14 -1.05,-3.32 -1.6,-3.32 -0.22,0 -0.4,-0.27 -0.4,-0.6 0,-0.45 0.13,-0.63 0.42,-0.54 z m -13.92,3.3 0.55,0.84 c 0.38,0.58 0.66,1.67 0.63,2.42 -0.05,1.5 0.88,1.96 1.3,0.64 0.24,-0.74 1.27,-1.41 2.89,-1.86 0.83,-0.23 0.85,-0.17 0.4,1.02 -0.26,0.7 -0.97,1.52 -1.57,1.83 -1.57,0.81 -1.43,1.75 0.25,1.75 0.76,0 1.81,0.37 2.41,0.84 l 0.94,0.73 h -4.15 c 0.04,-0.13 -0.27,-0.28 -1.14,-0.53 -1.24,-0.36 -1.67,-0.73 -1.95,-1.65 -0.2,-0.66 -0.46,-1.46 -0.56,-1.79 z m 1.66,5.45 c -0.3,0.04 -0.56,0.22 -0.56,0.54 0,0.68 1.08,1.16 1.41,0.62 0.13,-0.21 0.12,-0.55 -0.01,-0.77 -0.19,-0.3 -0.54,-0.42 -0.84,-0.39 z"
         id="use1427"
         style="fill:#ffffff;fill-opacity:1" />
      <path
         d="m 418.45,883.83 -1.61,-0.58 c -1.01,-0.51 -2.11,-1.32 -2.44,-1.79 -0.56,-0.8 -0.64,-0.8 -1.51,-0.2 -1.38,0.97 -1.66,0.79 -1.44,-0.9 0.2,-1.47 0.16,-1.52 -0.96,-1.52 -1.39,0 -3,-1.12 -4.24,-2.94 -1.68,-2.47 -0.64,-7.28 1.7,-9.12 1.48,-1.17 2.11,-0.6 0.74,0.85 -1.47,0.96 -2.59,4.67 -1.99,4.67 0.14,0 0.61,-0.22 1.04,-0.49 0.65,-0.4 0.92,-0.37 1.49,0.2 0.61,0.62 0.62,0.69 0.05,0.69 -1.15,0 -1.54,2.43 -0.59,3.69 0.58,0.76 2.3,1.51 3.45,1.51 1.74,0 2.79,-2.68 1.21,-3.09 -0.44,-0.11 -0.8,-0.37 -0.8,-0.57 0,-0.64 1.27,-0.88 2.04,-0.4 1,0.62 0.99,0.63 1.54,-0.69 0.26,-0.63 0.98,-1.64 1.6,-2.22 l 0.72,-0.7 v 2.61 c -0.11,0.43 -0.21,0.83 -0.25,1.26 -0.05,0.68 -2.96,3.8 -3.53,3.8 -0.21,0 -0.82,0.47 -1.35,1.05 l -0.97,1.05 1.29,-0.29 c 1.14,-0.24 1.35,-0.15 1.68,0.72 0.47,1.25 1.75,2.03 3.13,2.18 z m -0.2,-1.98 c -1.11,-0.05 -2.72,-1.83 -2.36,-3.27 l 0.25,-0.99 1.63,1.47 c 0.34,0.32 0.5,0.54 0.68,0.78 v 1.96 c -0.06,0.02 -0.12,0.05 -0.2,0.05 z m -5.61,-11.26 c -0.29,0.07 -0.49,-0.19 -0.49,-0.83 0,-0.55 -0.18,-1.12 -0.4,-1.26 -0.22,-0.14 -0.83,-0.91 -0.83,-1.44 l 0.06,-0.83 3.07,1.03 c 1.49,0.51 2.97,1.01 3.3,1.13 0.4,0.14 0.21,0.32 -0.56,0.52 -0.71,0.19 -1.45,0.13 -1.89,-0.15 -0.6,-0.38 -0.8,-0.28 -1.23,0.62 -0.36,0.72 -0.74,1.13 -1.03,1.21 z m -4.32,-0.29 c -0.8,0 -0.71,-0.31 0.43,-1.67 0.55,-0.66 1,-1.51 1,-1.9 0,-0.94 -1.5,-2.83 -2.23,-2.83 -0.76,0 -0.73,-0.76 0.03,-1.05 0.36,-0.14 0.6,-0.75 0.6,-1.51 0,-0.7 0.21,-1.5 0.48,-1.76 0.38,-0.38 0.64,0.15 1.19,2.42 0.38,1.6 0.7,3.64 0.71,4.55 0.02,1.75 -1.16,3.75 -2.21,3.75 z m -3.79,-0.46 c -0.29,-0.1 -0.97,-0.46 -1.6,-1.11 -0.73,-1.2 -0.88,-1.59 -0.91,-2.9 -0.03,-0.95 0.11,-2.07 0.31,-2.49 0.3,-0.65 0.22,-0.73 -0.51,-0.54 -1.11,0.29 -1.6,-0.46 -0.73,-1.1 0.91,-0.67 0.84,-0.98 -0.54,-2.4 l -0.95,-0.97 h 1.1 c 0.02,0.67 1.16,1.03 2.64,0.63 0.85,-0.22 1.21,-0.44 1.2,-0.63 h 2.99 l -1.09,0.9 c -0.89,0.73 -1,1.01 -0.6,1.42 0.41,0.41 0.36,0.62 -0.29,1.1 -0.75,0.56 -0.75,0.63 -0.1,1 0.76,0.43 0.95,1.75 0.3,2.15 -0.22,0.14 -0.4,-0.04 -0.4,-0.39 0,-0.85 -1.07,-1.22 -1.81,-0.61 -0.33,0.27 -0.59,0.94 -0.59,1.48 0,1.14 1.05,3.32 1.6,3.32 0.22,0 0.4,0.27 0.4,0.6 0,0.45 -0.13,0.63 -0.42,0.54 z m 13.92,-3.3 -0.55,-0.84 c -0.38,-0.58 -0.66,-1.67 -0.63,-2.42 0.05,-1.5 -0.88,-1.96 -1.3,-0.64 -0.24,0.74 -1.27,1.41 -2.89,1.86 -0.83,0.23 -0.85,0.17 -0.4,-1.02 0.26,-0.7 0.97,-1.52 1.57,-1.83 1.57,-0.81 1.43,-1.75 -0.25,-1.75 -0.76,0 -1.81,-0.37 -2.41,-0.84 l -0.94,-0.73 h 4.15 c -0.04,0.13 0.27,0.28 1.14,0.53 1.24,0.36 1.67,0.73 1.95,1.65 0.2,0.66 0.46,1.46 0.56,1.79 z m -1.66,-5.45 c 0.3,-0.04 0.56,-0.22 0.56,-0.54 0,-0.68 -1.08,-1.16 -1.41,-0.62 -0.13,0.21 -0.12,0.55 0.01,0.77 0.19,0.3 0.54,0.42 0.84,0.39 z"
         id="use1428"
         style="fill:#ffffff;fill-opacity:1" />
      <path
         d="m 418.422,883.83 1.61,-0.58 c 1.01,-0.51 2.11,-1.32 2.44,-1.79 0.56,-0.8 0.64,-0.8 1.51,-0.2 1.38,0.97 1.66,0.79 1.44,-0.9 -0.2,-1.47 -0.16,-1.52 0.96,-1.52 1.39,0 3,-1.12 4.24,-2.94 1.68,-2.47 0.64,-7.28 -1.7,-9.12 -1.48,-1.17 -2.11,-0.6 -0.74,0.85 1.47,0.96 2.59,4.67 1.99,4.67 -0.14,0 -0.61,-0.22 -1.04,-0.49 -0.65,-0.4 -0.92,-0.37 -1.49,0.2 -0.61,0.62 -0.62,0.69 -0.05,0.69 1.15,0 1.54,2.43 0.59,3.69 -0.58,0.76 -2.3,1.51 -3.45,1.51 -1.74,0 -2.79,-2.68 -1.21,-3.09 0.44,-0.11 0.8,-0.37 0.8,-0.57 0,-0.64 -1.27,-0.88 -2.04,-0.4 -1,0.62 -0.99,0.63 -1.54,-0.69 -0.26,-0.63 -0.98,-1.64 -1.6,-2.22 l -0.72,-0.7 v 2.61 c 0.11,0.43 0.21,0.83 0.25,1.26 0.05,0.68 2.96,3.8 3.53,3.8 0.21,0 0.82,0.47 1.35,1.05 l 0.97,1.05 -1.29,-0.29 c -1.14,-0.24 -1.35,-0.15 -1.68,0.72 -0.47,1.25 -1.75,2.03 -3.13,2.18 z m 0.2,-1.98 c 1.11,-0.05 2.72,-1.83 2.36,-3.27 l -0.25,-0.99 -1.63,1.47 c -0.34,0.32 -0.5,0.54 -0.68,0.78 v 1.96 c 0.06,0.02 0.12,0.05 0.2,0.05 z m 5.61,-11.26 c 0.29,0.07 0.49,-0.19 0.49,-0.83 0,-0.55 0.18,-1.12 0.4,-1.26 0.22,-0.14 0.83,-0.91 0.83,-1.44 l -0.06,-0.83 -3.07,1.03 c -1.49,0.51 -2.97,1.01 -3.3,1.13 -0.4,0.14 -0.21,0.32 0.56,0.52 0.71,0.19 1.45,0.13 1.89,-0.15 0.6,-0.38 0.8,-0.28 1.23,0.62 0.36,0.72 0.74,1.13 1.03,1.21 z m 4.32,-0.29 c 0.8,0 0.71,-0.31 -0.43,-1.67 -0.55,-0.66 -1,-1.51 -1,-1.9 0,-0.94 1.5,-2.83 2.23,-2.83 0.76,0 0.73,-0.76 -0.03,-1.05 -0.36,-0.14 -0.6,-0.75 -0.6,-1.51 0,-0.7 -0.21,-1.5 -0.48,-1.76 -0.38,-0.38 -0.64,0.15 -1.19,2.42 -0.38,1.6 -0.7,3.64 -0.71,4.55 -0.02,1.75 1.16,3.75 2.21,3.75 z m 3.79,-0.46 c 0.29,-0.1 0.97,-0.46 1.6,-1.11 0.73,-1.2 0.88,-1.59 0.91,-2.9 0.03,-0.95 -0.11,-2.07 -0.31,-2.49 -0.3,-0.65 -0.22,-0.73 0.51,-0.54 1.11,0.29 1.6,-0.46 0.73,-1.1 -0.91,-0.67 -0.84,-0.98 0.54,-2.4 l 0.95,-0.97 h -1.1 c -0.02,0.67 -1.16,1.03 -2.64,0.63 -0.85,-0.22 -1.21,-0.44 -1.2,-0.63 h -2.99 l 1.09,0.9 c 0.89,0.73 1,1.01 0.6,1.42 -0.41,0.41 -0.36,0.62 0.29,1.1 0.75,0.56 0.75,0.63 0.1,1 -0.76,0.43 -0.95,1.75 -0.3,2.15 0.22,0.14 0.4,-0.04 0.4,-0.39 0,-0.85 1.07,-1.22 1.81,-0.61 0.33,0.27 0.59,0.94 0.59,1.48 0,1.14 -1.05,3.32 -1.6,3.32 -0.22,0 -0.4,0.27 -0.4,0.6 0,0.45 0.13,0.63 0.42,0.54 z m -13.92,-3.3 0.55,-0.84 c 0.38,-0.58 0.66,-1.67 0.63,-2.42 -0.05,-1.5 0.88,-1.96 1.3,-0.64 0.24,0.74 1.27,1.41 2.89,1.86 0.83,0.23 0.85,0.17 0.4,-1.02 -0.26,-0.7 -0.97,-1.52 -1.57,-1.83 -1.57,-0.81 -1.43,-1.75 0.25,-1.75 0.76,0 1.81,-0.37 2.41,-0.84 l 0.94,-0.73 h -4.15 c 0.04,0.13 -0.27,0.28 -1.14,0.53 -1.24,0.36 -1.67,0.73 -1.95,1.65 -0.2,0.66 -0.46,1.46 -0.56,1.79 z m 1.66,-5.45 c -0.3,-0.04 -0.56,-0.22 -0.56,-0.54 0,-0.68 1.08,-1.16 1.41,-0.62 0.13,0.21 0.12,0.55 -0.01,0.77 -0.19,0.3 -0.54,0.42 -0.84,0.39 z"
         id="use1429"
         style="fill:#ffffff;fill-opacity:1" />
      <g
         transform="matrix(0.4,0,0,0.4,236.59,667.12)"
         id="use1430"
         style="fill:#ffffff;fill-opacity:1;stroke:none;stroke-opacity:1">
        <path
           d="m 355.65,280.19 c 0,0 -3.75,-8.1 -8.1,-12.6 -4.36,-4.51 -9.68,-7.58 -11.04,-6.53"
           transform="translate(-1.35,-0.76)"
           style="fill:#ffffff;fill-opacity:1;fill-rule:evenodd;stroke:none;stroke-width:0.25pt;stroke-linecap:butt;stroke-linejoin:miter;stroke-opacity:1"
           id="path13" />
        <path
           d="m 368.97,258.94 c -2.29,0.08 -5.9,1.92 -7.85,3.87 -2.59,2.6 -3.52,7.58 -3.59,9.44 -0.07,1.86 -1.32,-0.84 -2.19,-2.37 -0.86,-1.54 -1.93,-5.4 -2.22,-3.22 -0.28,2.2 -0.34,3.26 0.07,5.72 0.4,2.45 1.59,7.15 2.56,8.68 l 3.97,3.94 c 1.87,-1.88 3.1,-6.25 3.19,-6.25 l -0.07,9.34 4.35,4.32 c -1.16,-2.37 -1.94,-6.58 -1.63,-10.38 0.32,-3.8 2.3,-8.59 2.06,-10.44 -1.14,-0.4 -2.9,2.58 -5.21,1.88 -0.08,-1.75 0.74,-6.02 1.9,-7.69 1.17,-1.66 4.43,-5.7 6.41,-6.28 -0.36,-0.42 -0.99,-0.59 -1.75,-0.56 z"
           style="fill:#ffffff;fill-opacity:1;fill-rule:evenodd;stroke:none;stroke-width:0.25pt;stroke-linecap:butt;stroke-linejoin:miter;stroke-opacity:1"
           id="path15" />
        <path
           d="m 329.36,254.28 c 9.62,-4.95 19.64,8.3 19.64,8.3 0,0 1.44,-9.25 3.32,-9.36 1.88,-0.11 4.87,7.31 4.87,7.31 0,0 5.76,-7.64 15.72,-7.58 9.97,0.05 11.57,9.13 5.87,9.57 -5.66,0.44 -2.38,-5.15 -2.27,-3.65 0.06,0.17 -5.37,-7.75 -19.15,7.86 -2.03,2.3 -3.94,-8.46 -4.93,-6.09 -1.21,2.88 -0.22,6.26 -1.11,8.53 1.39,1.71 -11.35,-13.84 -16.77,-9.58"
           transform="translate(-1.35,-0.76)"
           style="fill:#ffffff;fill-opacity:1;fill-rule:evenodd;stroke:none;stroke-width:0.25pt;stroke-linecap:butt;stroke-linejoin:miter;stroke-opacity:1"
           id="path16" />
        <path
           d="m 328.02,253.52 c -4.95,9.62 8.3,19.64 8.3,19.64 0,0 -9.25,1.44 -9.36,3.32 -0.11,1.88 7.31,4.87 7.31,4.87 0,0 -7.64,5.76 -7.58,15.72 0.05,9.97 9.13,11.57 9.57,5.87 0.44,-5.66 -5.15,-2.38 -3.65,-2.27 0.17,0.06 -7.75,-5.37 7.86,-19.15 2.3,-2.03 -8.46,-3.94 -6.09,-4.93 2.88,-1.21 6.26,-0.22 8.53,-1.11 1.71,1.39 -13.84,-11.35 -9.58,-16.77"
           style="fill:#ffffff;fill-opacity:1;fill-rule:evenodd;stroke:none;stroke-width:0.25pt;stroke-linecap:butt;stroke-linejoin:miter;stroke-opacity:1"
           id="use16" />
        <path
           d="m 354.33,279.37 c 0,0 -8.1,-3.75 -12.6,-8.1 -4.51,-4.36 -7.58,-9.68 -6.53,-11.04"
           style="fill:#ffffff;fill-opacity:1;fill-rule:evenodd;stroke:none;stroke-width:0.25pt;stroke-linecap:butt;stroke-linejoin:miter;stroke-opacity:1"
           id="use17" />
        <path
           d="m 333.76,294.15 c 0.08,-2.29 1.92,-5.9 3.87,-7.85 2.6,-2.59 7.58,-3.52 9.44,-3.59 1.86,-0.07 -0.84,-1.32 -2.37,-2.19 -1.54,-0.86 -5.4,-1.93 -3.22,-2.22 2.2,-0.28 3.26,-0.34 5.72,0.07 2.45,0.4 7.15,1.59 8.68,2.56 l 3.94,3.97 c -1.88,1.87 -6.25,3.1 -6.25,3.19 l 9.34,-0.07 4.32,4.35 c -2.37,-1.16 -6.58,-1.94 -10.38,-1.63 -3.8,0.32 -8.59,2.3 -10.44,2.06 -0.4,-1.14 2.58,-2.9 1.88,-5.21 -1.75,-0.08 -6.02,0.74 -7.69,1.9 -1.66,1.17 -5.7,4.43 -6.28,6.41 -0.42,-0.36 -0.59,-0.99 -0.56,-1.75 z"
           style="fill:#ffffff;fill-opacity:1;fill-rule:evenodd;stroke:none;stroke-width:0.25pt;stroke-linecap:butt;stroke-linejoin:miter;stroke-opacity:1"
           id="use18" />
      </g>
      <g
         transform="matrix(-0.4,0,0,0.4,601.574,667.12)"
         id="use1431"
         style="fill:#ffffff;fill-opacity:1;stroke:none;stroke-opacity:1">
        <path
           d="m 355.65,280.19 c 0,0 -3.75,-8.1 -8.1,-12.6 -4.36,-4.51 -9.68,-7.58 -11.04,-6.53"
           transform="translate(-1.35,-0.76)"
           style="fill:#ffffff;fill-opacity:1;fill-rule:evenodd;stroke:none;stroke-width:0.25pt;stroke-linecap:butt;stroke-linejoin:miter;stroke-opacity:1"
           id="path18" />
        <path
           d="m 368.97,258.94 c -2.29,0.08 -5.9,1.92 -7.85,3.87 -2.59,2.6 -3.52,7.58 -3.59,9.44 -0.07,1.86 -1.32,-0.84 -2.19,-2.37 -0.86,-1.54 -1.93,-5.4 -2.22,-3.22 -0.28,2.2 -0.34,3.26 0.07,5.72 0.4,2.45 1.59,7.15 2.56,8.68 l 3.97,3.94 c 1.87,-1.88 3.1,-6.25 3.19,-6.25 l -0.07,9.34 4.35,4.32 c -1.16,-2.37 -1.94,-6.58 -1.63,-10.38 0.32,-3.8 2.3,-8.59 2.06,-10.44 -1.14,-0.4 -2.9,2.58 -5.21,1.88 -0.08,-1.75 0.74,-6.02 1.9,-7.69 1.17,-1.66 4.43,-5.7 6.41,-6.28 -0.36,-0.42 -0.99,-0.59 -1.75,-0.56 z"
           style="fill:#ffffff;fill-opacity:1;fill-rule:evenodd;stroke:none;stroke-width:0.25pt;stroke-linecap:butt;stroke-linejoin:miter;stroke-opacity:1"
           id="path19" />
        <path
           d="m 329.36,254.28 c 9.62,-4.95 19.64,8.3 19.64,8.3 0,0 1.44,-9.25 3.32,-9.36 1.88,-0.11 4.87,7.31 4.87,7.31 0,0 5.76,-7.64 15.72,-7.58 9.97,0.05 11.57,9.13 5.87,9.57 -5.66,0.44 -2.38,-5.15 -2.27,-3.65 0.06,0.17 -5.37,-7.75 -19.15,7.86 -2.03,2.3 -3.94,-8.46 -4.93,-6.09 -1.21,2.88 -0.22,6.26 -1.11,8.53 1.39,1.71 -11.35,-13.84 -16.77,-9.58"
           transform="translate(-1.35,-0.76)"
           style="fill:#ffffff;fill-opacity:1;fill-rule:evenodd;stroke:none;stroke-width:0.25pt;stroke-linecap:butt;stroke-linejoin:miter;stroke-opacity:1"
           id="path20" />
        <path
           d="m 328.02,253.52 c -4.95,9.62 8.3,19.64 8.3,19.64 0,0 -9.25,1.44 -9.36,3.32 -0.11,1.88 7.31,4.87 7.31,4.87 0,0 -7.64,5.76 -7.58,15.72 0.05,9.97 9.13,11.57 9.57,5.87 0.44,-5.66 -5.15,-2.38 -3.65,-2.27 0.17,0.06 -7.75,-5.37 7.86,-19.15 2.3,-2.03 -8.46,-3.94 -6.09,-4.93 2.88,-1.21 6.26,-0.22 8.53,-1.11 1.71,1.39 -13.84,-11.35 -9.58,-16.77"
           style="fill:#ffffff;fill-opacity:1;fill-rule:evenodd;stroke:none;stroke-width:0.25pt;stroke-linecap:butt;stroke-linejoin:miter;stroke-opacity:1"
           id="use20" />
        <path
           d="m 354.33,279.37 c 0,0 -8.1,-3.75 -12.6,-8.1 -4.51,-4.36 -7.58,-9.68 -6.53,-11.04"
           style="fill:#ffffff;fill-opacity:1;fill-rule:evenodd;stroke:none;stroke-width:0.25pt;stroke-linecap:butt;stroke-linejoin:miter;stroke-opacity:1"
           id="use21" />
        <path
           d="m 333.76,294.15 c 0.08,-2.29 1.92,-5.9 3.87,-7.85 2.6,-2.59 7.58,-3.52 9.44,-3.59 1.86,-0.07 -0.84,-1.32 -2.37,-2.19 -1.54,-0.86 -5.4,-1.93 -3.22,-2.22 2.2,-0.28 3.26,-0.34 5.72,0.07 2.45,0.4 7.15,1.59 8.68,2.56 l 3.94,3.97 c -1.88,1.87 -6.25,3.1 -6.25,3.19 l 9.34,-0.07 4.32,4.35 c -2.37,-1.16 -6.58,-1.94 -10.38,-1.63 -3.8,0.32 -8.59,2.3 -10.44,2.06 -0.4,-1.14 2.58,-2.9 1.88,-5.21 -1.75,-0.08 -6.02,0.74 -7.69,1.9 -1.66,1.17 -5.7,4.43 -6.28,6.41 -0.42,-0.36 -0.59,-0.99 -0.56,-1.75 z"
           style="fill:#ffffff;fill-opacity:1;fill-rule:evenodd;stroke:none;stroke-width:0.25pt;stroke-linecap:butt;stroke-linejoin:miter;stroke-opacity:1"
           id="use22" />
      </g>
      <g
         transform="matrix(0.4,0,0,-0.4,236.59,1050.055)"
         id="use1432"
         style="fill:#ffffff;fill-opacity:1;stroke:none;stroke-opacity:1">
        <path
           d="m 355.65,280.19 c 0,0 -3.75,-8.1 -8.1,-12.6 -4.36,-4.51 -9.68,-7.58 -11.04,-6.53"
           transform="translate(-1.35,-0.76)"
           style="fill:#ffffff;fill-opacity:1;fill-rule:evenodd;stroke:none;stroke-width:0.25pt;stroke-linecap:butt;stroke-linejoin:miter;stroke-opacity:1"
           id="path22" />
        <path
           d="m 368.97,258.94 c -2.29,0.08 -5.9,1.92 -7.85,3.87 -2.59,2.6 -3.52,7.58 -3.59,9.44 -0.07,1.86 -1.32,-0.84 -2.19,-2.37 -0.86,-1.54 -1.93,-5.4 -2.22,-3.22 -0.28,2.2 -0.34,3.26 0.07,5.72 0.4,2.45 1.59,7.15 2.56,8.68 l 3.97,3.94 c 1.87,-1.88 3.1,-6.25 3.19,-6.25 l -0.07,9.34 4.35,4.32 c -1.16,-2.37 -1.94,-6.58 -1.63,-10.38 0.32,-3.8 2.3,-8.59 2.06,-10.44 -1.14,-0.4 -2.9,2.58 -5.21,1.88 -0.08,-1.75 0.74,-6.02 1.9,-7.69 1.17,-1.66 4.43,-5.7 6.41,-6.28 -0.36,-0.42 -0.99,-0.59 -1.75,-0.56 z"
           style="fill:#ffffff;fill-opacity:1;fill-rule:evenodd;stroke:none;stroke-width:0.25pt;stroke-linecap:butt;stroke-linejoin:miter;stroke-opacity:1"
           id="path23" />
        <path
           d="m 329.36,254.28 c 9.62,-4.95 19.64,8.3 19.64,8.3 0,0 1.44,-9.25 3.32,-9.36 1.88,-0.11 4.87,7.31 4.87,7.31 0,0 5.76,-7.64 15.72,-7.58 9.97,0.05 11.57,9.13 5.87,9.57 -5.66,0.44 -2.38,-5.15 -2.27,-3.65 0.06,0.17 -5.37,-7.75 -19.15,7.86 -2.03,2.3 -3.94,-8.46 -4.93,-6.09 -1.21,2.88 -0.22,6.26 -1.11,8.53 1.39,1.71 -11.35,-13.84 -16.77,-9.58"
           transform="translate(-1.35,-0.76)"
           style="fill:#ffffff;fill-opacity:1;fill-rule:evenodd;stroke:none;stroke-width:0.25pt;stroke-linecap:butt;stroke-linejoin:miter;stroke-opacity:1"
           id="path24" />
        <path
           d="m 328.02,253.52 c -4.95,9.62 8.3,19.64 8.3,19.64 0,0 -9.25,1.44 -9.36,3.32 -0.11,1.88 7.31,4.87 7.31,4.87 0,0 -7.64,5.76 -7.58,15.72 0.05,9.97 9.13,11.57 9.57,5.87 0.44,-5.66 -5.15,-2.38 -3.65,-2.27 0.17,0.06 -7.75,-5.37 7.86,-19.15 2.3,-2.03 -8.46,-3.94 -6.09,-4.93 2.88,-1.21 6.26,-0.22 8.53,-1.11 1.71,1.39 -13.84,-11.35 -9.58,-16.77"
           style="fill:#ffffff;fill-opacity:1;fill-rule:evenodd;stroke:none;stroke-width:0.25pt;stroke-linecap:butt;stroke-linejoin:miter;stroke-opacity:1"
           id="use24" />
        <path
           d="m 354.33,279.37 c 0,0 -8.1,-3.75 -12.6,-8.1 -4.51,-4.36 -7.58,-9.68 -6.53,-11.04"
           style="fill:#ffffff;fill-opacity:1;fill-rule:evenodd;stroke:none;stroke-width:0.25pt;stroke-linecap:butt;stroke-linejoin:miter;stroke-opacity:1"
           id="use25" />
        <path
           d="m 333.76,294.15 c 0.08,-2.29 1.92,-5.9 3.87,-7.85 2.6,-2.59 7.58,-3.52 9.44,-3.59 1.86,-0.07 -0.84,-1.32 -2.37,-2.19 -1.54,-0.86 -5.4,-1.93 -3.22,-2.22 2.2,-0.28 3.26,-0.34 5.72,0.07 2.45,0.4 7.15,1.59 8.68,2.56 l 3.94,3.97 c -1.88,1.87 -6.25,3.1 -6.25,3.19 l 9.34,-0.07 4.32,4.35 c -2.37,-1.16 -6.58,-1.94 -10.38,-1.63 -3.8,0.32 -8.59,2.3 -10.44,2.06 -0.4,-1.14 2.58,-2.9 1.88,-5.21 -1.75,-0.08 -6.02,0.74 -7.69,1.9 -1.66,1.17 -5.7,4.43 -6.28,6.41 -0.42,-0.36 -0.59,-0.99 -0.56,-1.75 z"
           style="fill:#ffffff;fill-opacity:1;fill-rule:evenodd;stroke:none;stroke-width:0.25pt;stroke-linecap:butt;stroke-linejoin:miter;stroke-opacity:1"
           id="use26" />
      </g>
      <g
         transform="matrix(-0.4,0,0,-0.4,601.574,1050.055)"
         id="use1433"
         style="fill:#ffffff;fill-opacity:1;stroke:none;stroke-opacity:1">
        <path
           d="m 355.65,280.19 c 0,0 -3.75,-8.1 -8.1,-12.6 -4.36,-4.51 -9.68,-7.58 -11.04,-6.53"
           transform="translate(-1.35,-0.76)"
           style="fill:#ffffff;fill-opacity:1;fill-rule:evenodd;stroke:none;stroke-width:0.25pt;stroke-linecap:butt;stroke-linejoin:miter;stroke-opacity:1"
           id="path26" />
        <path
           d="m 368.97,258.94 c -2.29,0.08 -5.9,1.92 -7.85,3.87 -2.59,2.6 -3.52,7.58 -3.59,9.44 -0.07,1.86 -1.32,-0.84 -2.19,-2.37 -0.86,-1.54 -1.93,-5.4 -2.22,-3.22 -0.28,2.2 -0.34,3.26 0.07,5.72 0.4,2.45 1.59,7.15 2.56,8.68 l 3.97,3.94 c 1.87,-1.88 3.1,-6.25 3.19,-6.25 l -0.07,9.34 4.35,4.32 c -1.16,-2.37 -1.94,-6.58 -1.63,-10.38 0.32,-3.8 2.3,-8.59 2.06,-10.44 -1.14,-0.4 -2.9,2.58 -5.21,1.88 -0.08,-1.75 0.74,-6.02 1.9,-7.69 1.17,-1.66 4.43,-5.7 6.41,-6.28 -0.36,-0.42 -0.99,-0.59 -1.75,-0.56 z"
           style="fill:#ffffff;fill-opacity:1;fill-rule:evenodd;stroke:none;stroke-width:0.25pt;stroke-linecap:butt;stroke-linejoin:miter;stroke-opacity:1"
           id="path27" />
        <path
           d="m 329.36,254.28 c 9.62,-4.95 19.64,8.3 19.64,8.3 0,0 1.44,-9.25 3.32,-9.36 1.88,-0.11 4.87,7.31 4.87,7.31 0,0 5.76,-7.64 15.72,-7.58 9.97,0.05 11.57,9.13 5.87,9.57 -5.66,0.44 -2.38,-5.15 -2.27,-3.65 0.06,0.17 -5.37,-7.75 -19.15,7.86 -2.03,2.3 -3.94,-8.46 -4.93,-6.09 -1.21,2.88 -0.22,6.26 -1.11,8.53 1.39,1.71 -11.35,-13.84 -16.77,-9.58"
           transform="translate(-1.35,-0.76)"
           style="fill:#ffffff;fill-opacity:1;fill-rule:evenodd;stroke:none;stroke-width:0.25pt;stroke-linecap:butt;stroke-linejoin:miter;stroke-opacity:1"
           id="path28" />
        <path
           d="m 328.02,253.52 c -4.95,9.62 8.3,19.64 8.3,19.64 0,0 -9.25,1.44 -9.36,3.32 -0.11,1.88 7.31,4.87 7.31,4.87 0,0 -7.64,5.76 -7.58,15.72 0.05,9.97 9.13,11.57 9.57,5.87 0.44,-5.66 -5.15,-2.38 -3.65,-2.27 0.17,0.06 -7.75,-5.37 7.86,-19.15 2.3,-2.03 -8.46,-3.94 -6.09,-4.93 2.88,-1.21 6.26,-0.22 8.53,-1.11 1.71,1.39 -13.84,-11.35 -9.58,-16.77"
           style="fill:#ffffff;fill-opacity:1;fill-rule:evenodd;stroke:none;stroke-width:0.25pt;stroke-linecap:butt;stroke-linejoin:miter;stroke-opacity:1"
           id="use28" />
        <path
           d="m 354.33,279.37 c 0,0 -8.1,-3.75 -12.6,-8.1 -4.51,-4.36 -7.58,-9.68 -6.53,-11.04"
           style="fill:#ffffff;fill-opacity:1;fill-rule:evenodd;stroke:none;stroke-width:0.25pt;stroke-linecap:butt;stroke-linejoin:miter;stroke-opacity:1"
           id="use29" />
        <path
           d="m 333.76,294.15 c 0.08,-2.29 1.92,-5.9 3.87,-7.85 2.6,-2.59 7.58,-3.52 9.44,-3.59 1.86,-0.07 -0.84,-1.32 -2.37,-2.19 -1.54,-0.86 -5.4,-1.93 -3.22,-2.22 2.2,-0.28 3.26,-0.34 5.72,0.07 2.45,0.4 7.15,1.59 8.68,2.56 l 3.94,3.97 c -1.88,1.87 -6.25,3.1 -6.25,3.19 l 9.34,-0.07 4.32,4.35 c -2.37,-1.16 -6.58,-1.94 -10.38,-1.63 -3.8,0.32 -8.59,2.3 -10.44,2.06 -0.4,-1.14 2.58,-2.9 1.88,-5.21 -1.75,-0.08 -6.02,0.74 -7.69,1.9 -1.66,1.17 -5.7,4.43 -6.28,6.41 -0.42,-0.36 -0.59,-0.99 -0.56,-1.75 z"
           style="fill:#ffffff;fill-opacity:1;fill-rule:evenodd;stroke:none;stroke-width:0.25pt;stroke-linecap:butt;stroke-linejoin:miter;stroke-opacity:1"
           id="use30" />
      </g>
      <g
         id="use1434"
         style="fill:none;fill-opacity:1;stroke:#ffffff;stroke-width:1.251;stroke-linecap:round;stroke-linejoin:round;stroke-miterlimit:4;stroke-dasharray:none;stroke-opacity:1"
         transform="matrix(0.3394,-0.3394,0.3394,0.3394,-86.187,870.603)">
        <path
           style="fill:none;fill-opacity:1;fill-rule:evenodd;stroke:#ffffff;stroke-width:1.251;stroke-miterlimit:4;stroke-dasharray:none;stroke-opacity:1"
           d="m 508.992,779.917 c -2.054,-1.516 -2.26,-4.512 -0.747,-6.48 1.827,-2.375 5.344,-2.595 7.638,-0.777 2.696,2.137 2.93,6.176 0.807,8.795 -2.447,3.018 -7.009,3.265 -9.953,0.837 -3.34,-2.755 -3.601,-7.842 -0.866,-11.11 2.394,-2.862 6.495,-3.76 9.915,-2.335"
           transform="matrix(0.7518,0.3005,-0.3107,0.7774,372.862,20.8342)"
           id="path2" />
        <path
           style="fill:none;fill-opacity:1;fill-rule:evenodd;stroke:#ffffff;stroke-width:1.251;stroke-miterlimit:4;stroke-dasharray:none;stroke-opacity:1"
           d="m 507.265,776.876 c -0.309,-2.765 1.915,-5.165 4.616,-5.421 3.211,-0.304 5.98,2.289 6.239,5.435 0.3,3.658 -2.663,6.796 -6.255,7.057 -4.104,0.297 -7.612,-3.037 -7.874,-7.075 -0.296,-4.55 3.41,-8.429 7.894,-8.692 3.474,-0.203 6.793,1.741 8.422,4.797"
           transform="matrix(0.7518,0.3005,0.3107,-0.7774,-109.566,1234.952)"
           id="path4" />
      </g>
      <g
         id="use1435"
         style="fill:none;fill-opacity:1;stroke:#ffffff;stroke-width:1.251;stroke-linecap:round;stroke-linejoin:round;stroke-miterlimit:4;stroke-dasharray:none;stroke-opacity:1"
         transform="matrix(-0.3394,-0.3394,0.3394,-0.3394,392.405,1401.347)">
        <path
           style="fill:none;fill-opacity:1;fill-rule:evenodd;stroke:#ffffff;stroke-width:1.251;stroke-miterlimit:4;stroke-dasharray:none;stroke-opacity:1"
           d="m 508.992,779.917 c -2.054,-1.516 -2.26,-4.512 -0.747,-6.48 1.827,-2.375 5.344,-2.595 7.638,-0.777 2.696,2.137 2.93,6.176 0.807,8.795 -2.447,3.018 -7.009,3.265 -9.953,0.837 -3.34,-2.755 -3.601,-7.842 -0.866,-11.11 2.394,-2.862 6.495,-3.76 9.915,-2.335"
           transform="matrix(0.7518,0.3005,-0.3107,0.7774,372.862,20.8342)"
           id="path7" />
        <path
           style="fill:none;fill-opacity:1;fill-rule:evenodd;stroke:#ffffff;stroke-width:1.251;stroke-miterlimit:4;stroke-dasharray:none;stroke-opacity:1"
           d="m 507.265,776.876 c -0.309,-2.765 1.915,-5.165 4.616,-5.421 3.211,-0.304 5.98,2.289 6.239,5.435 0.3,3.658 -2.663,6.796 -6.255,7.057 -4.104,0.297 -7.612,-3.037 -7.874,-7.075 -0.296,-4.55 3.41,-8.429 7.894,-8.692 3.474,-0.203 6.793,1.741 8.422,4.797"
           transform="matrix(0.7518,0.3005,0.3107,-0.7774,-109.566,1234.952)"
           id="path8" />
      </g>
      <g
         id="use1436"
         style="fill:none;fill-opacity:1;stroke:#ffffff;stroke-width:1.251;stroke-linecap:round;stroke-linejoin:round;stroke-miterlimit:4;stroke-dasharray:none;stroke-opacity:1"
         transform="matrix(-0.3394,0.3394,-0.3394,-0.3394,923.149,846.018)">
        <path
           style="fill:none;fill-opacity:1;fill-rule:evenodd;stroke:#ffffff;stroke-width:1.251;stroke-miterlimit:4;stroke-dasharray:none;stroke-opacity:1"
           d="m 508.992,779.917 c -2.054,-1.516 -2.26,-4.512 -0.747,-6.48 1.827,-2.375 5.344,-2.595 7.638,-0.777 2.696,2.137 2.93,6.176 0.807,8.795 -2.447,3.018 -7.009,3.265 -9.953,0.837 -3.34,-2.755 -3.601,-7.842 -0.866,-11.11 2.394,-2.862 6.495,-3.76 9.915,-2.335"
           transform="matrix(0.7518,0.3005,-0.3107,0.7774,372.862,20.8342)"
           id="path9" />
        <path
           style="fill:none;fill-opacity:1;fill-rule:evenodd;stroke:#ffffff;stroke-width:1.251;stroke-miterlimit:4;stroke-dasharray:none;stroke-opacity:1"
           d="m 507.265,776.876 c -0.309,-2.765 1.915,-5.165 4.616,-5.421 3.211,-0.304 5.98,2.289 6.239,5.435 0.3,3.658 -2.663,6.796 -6.255,7.057 -4.104,0.297 -7.612,-3.037 -7.874,-7.075 -0.296,-4.55 3.41,-8.429 7.894,-8.692 3.474,-0.203 6.793,1.741 8.422,4.797"
           transform="matrix(0.7518,0.3005,0.3107,-0.7774,-109.566,1234.952)"
           id="path10" />
      </g>
      <g
         id="use1437"
         style="fill:none;fill-opacity:1;stroke:#ffffff;stroke-width:1.251;stroke-linecap:round;stroke-linejoin:round;stroke-miterlimit:4;stroke-dasharray:none;stroke-opacity:1"
         transform="matrix(0.3394,0.3394,-0.3394,0.3394,444.557,315.274)">
        <path
           style="fill:none;fill-opacity:1;fill-rule:evenodd;stroke:#ffffff;stroke-width:1.251;stroke-miterlimit:4;stroke-dasharray:none;stroke-opacity:1"
           d="m 508.992,779.917 c -2.054,-1.516 -2.26,-4.512 -0.747,-6.48 1.827,-2.375 5.344,-2.595 7.638,-0.777 2.696,2.137 2.93,6.176 0.807,8.795 -2.447,3.018 -7.009,3.265 -9.953,0.837 -3.34,-2.755 -3.601,-7.842 -0.866,-11.11 2.394,-2.862 6.495,-3.76 9.915,-2.335"
           transform="matrix(0.7518,0.3005,-0.3107,0.7774,372.862,20.8342)"
           id="path11" />
        <path
           style="fill:none;fill-opacity:1;fill-rule:evenodd;stroke:#ffffff;stroke-width:1.251;stroke-miterlimit:4;stroke-dasharray:none;stroke-opacity:1"
           d="m 507.265,776.876 c -0.309,-2.765 1.915,-5.165 4.616,-5.421 3.211,-0.304 5.98,2.289 6.239,5.435 0.3,3.658 -2.663,6.796 -6.255,7.057 -4.104,0.297 -7.612,-3.037 -7.874,-7.075 -0.296,-4.55 3.41,-8.429 7.894,-8.692 3.474,-0.203 6.793,1.741 8.422,4.797"
           transform="matrix(0.7518,0.3005,0.3107,-0.7774,-109.566,1234.952)"
           id="path12" />
      </g>
      <g
         id="g_lace">
        <g
           transform="matrix(1,0,0,0.95,-190.33,54.46)"
           id="use1438"
           style="fill:none;fill-opacity:1;stroke:#ffffff;stroke-width:0.320883;stroke-miterlimit:40;stroke-dasharray:none;stroke-opacity:1">
          <path
             d="m 585.84,796.83 c -0.65,0.05 -2.12,0.95 0.23,-0.34 0.48,-0.26 -0.87,0.66 -1.17,1.11 -0.89,1.73 -0.46,3.67 0.15,5.43 1.29,3.4 2.77,6.73 4.02,10.15 0.75,1.79 0.1,3.43 -1.01,4.92 -1.17,1.45 -2.66,2.62 -4.2,3.67 l -1.55,0.61 c 1.55,-1.03 3.05,-2.19 4.24,-3.63 1.09,-1.43 1.75,-3.02 1.08,-4.77 -1.16,-3.45 -2.7,-6.77 -4,-10.17 -0.64,-1.77 -1.14,-3.76 -0.26,-5.54 0.8,-1.29 2.37,-2.25 3.86,-2.45 z"
             transform="translate(-41.66,-51.43)"
             style="fill:none;fill-opacity:1;fill-rule:nonzero;stroke:#ffffff;stroke-width:0.320883;stroke-linecap:butt;stroke-linejoin:miter;stroke-miterlimit:40;stroke-dasharray:none;stroke-opacity:1"
             id="path30" />
          <path
             d="m 585.84,796.83 c -0.65,0.05 -2.12,0.95 0.23,-0.34 0.48,-0.26 -0.87,0.66 -1.17,1.11 -0.89,1.73 -0.46,3.67 0.15,5.43 1.29,3.4 2.77,6.73 4.02,10.15 0.75,1.79 0.1,3.43 -1.01,4.92 -1.17,1.45 -2.66,2.62 -4.2,3.67 l -1.55,0.61 c 1.55,-1.03 3.05,-2.19 4.24,-3.63 1.09,-1.43 1.75,-3.02 1.08,-4.77 -1.16,-3.45 -2.7,-6.77 -4,-10.17 -0.64,-1.77 -1.14,-3.76 -0.26,-5.54 0.8,-1.29 2.37,-2.25 3.86,-2.45 z"
             transform="rotate(180,564.75,786.2)"
             style="fill:none;fill-opacity:1;fill-rule:nonzero;stroke:#ffffff;stroke-width:0.320883;stroke-linecap:butt;stroke-linejoin:miter;stroke-miterlimit:40;stroke-dasharray:none;stroke-opacity:1"
             id="path31" />
        </g>
        <g
           transform="matrix(1,0,0,0.95,-190.33,81.64114)"
           id="use1439"
           style="fill:none;fill-opacity:1;stroke:#ffffff;stroke-width:0.320883;stroke-miterlimit:40;stroke-dasharray:none;stroke-opacity:1">
          <path
             d="m 585.84,796.83 c -0.65,0.05 -2.12,0.95 0.23,-0.34 0.48,-0.26 -0.87,0.66 -1.17,1.11 -0.89,1.73 -0.46,3.67 0.15,5.43 1.29,3.4 2.77,6.73 4.02,10.15 0.75,1.79 0.1,3.43 -1.01,4.92 -1.17,1.45 -2.66,2.62 -4.2,3.67 l -1.55,0.61 c 1.55,-1.03 3.05,-2.19 4.24,-3.63 1.09,-1.43 1.75,-3.02 1.08,-4.77 -1.16,-3.45 -2.7,-6.77 -4,-10.17 -0.64,-1.77 -1.14,-3.76 -0.26,-5.54 0.8,-1.29 2.37,-2.25 3.86,-2.45 z"
             transform="translate(-41.66,-51.43)"
             style="fill:none;fill-opacity:1;fill-rule:nonzero;stroke:#ffffff;stroke-width:0.320883;stroke-linecap:butt;stroke-linejoin:miter;stroke-miterlimit:40;stroke-dasharray:none;stroke-opacity:1"
             id="path32" />
          <path
             d="m 585.84,796.83 c -0.65,0.05 -2.12,0.95 0.23,-0.34 0.48,-0.26 -0.87,0.66 -1.17,1.11 -0.89,1.73 -0.46,3.67 0.15,5.43 1.29,3.4 2.77,6.73 4.02,10.15 0.75,1.79 0.1,3.43 -1.01,4.92 -1.17,1.45 -2.66,2.62 -4.2,3.67 l -1.55,0.61 c 1.55,-1.03 3.05,-2.19 4.24,-3.63 1.09,-1.43 1.75,-3.02 1.08,-4.77 -1.16,-3.45 -2.7,-6.77 -4,-10.17 -0.64,-1.77 -1.14,-3.76 -0.26,-5.54 0.8,-1.29 2.37,-2.25 3.86,-2.45 z"
             transform="rotate(180,564.75,786.2)"
             style="fill:none;fill-opacity:1;fill-rule:nonzero;stroke:#ffffff;stroke-width:0.320883;stroke-linecap:butt;stroke-linejoin:miter;stroke-miterlimit:40;stroke-dasharray:none;stroke-opacity:1"
             id="path33" />
        </g>
        <g
           transform="matrix(1,0,0,0.95,-190.33,108.83214)"
           id="use1440"
           style="fill:none;fill-opacity:1;stroke:#ffffff;stroke-width:0.320883;stroke-miterlimit:40;stroke-dasharray:none;stroke-opacity:1">
          <path
             d="m 585.84,796.83 c -0.65,0.05 -2.12,0.95 0.23,-0.34 0.48,-0.26 -0.87,0.66 -1.17,1.11 -0.89,1.73 -0.46,3.67 0.15,5.43 1.29,3.4 2.77,6.73 4.02,10.15 0.75,1.79 0.1,3.43 -1.01,4.92 -1.17,1.45 -2.66,2.62 -4.2,3.67 l -1.55,0.61 c 1.55,-1.03 3.05,-2.19 4.24,-3.63 1.09,-1.43 1.75,-3.02 1.08,-4.77 -1.16,-3.45 -2.7,-6.77 -4,-10.17 -0.64,-1.77 -1.14,-3.76 -0.26,-5.54 0.8,-1.29 2.37,-2.25 3.86,-2.45 z"
             transform="translate(-41.66,-51.43)"
             style="fill:none;fill-opacity:1;fill-rule:nonzero;stroke:#ffffff;stroke-width:0.320883;stroke-linecap:butt;stroke-linejoin:miter;stroke-miterlimit:40;stroke-dasharray:none;stroke-opacity:1"
             id="path34" />
          <path
             d="m 585.84,796.83 c -0.65,0.05 -2.12,0.95 0.23,-0.34 0.48,-0.26 -0.87,0.66 -1.17,1.11 -0.89,1.73 -0.46,3.67 0.15,5.43 1.29,3.4 2.77,6.73 4.02,10.15 0.75,1.79 0.1,3.43 -1.01,4.92 -1.17,1.45 -2.66,2.62 -4.2,3.67 l -1.55,0.61 c 1.55,-1.03 3.05,-2.19 4.24,-3.63 1.09,-1.43 1.75,-3.02 1.08,-4.77 -1.16,-3.45 -2.7,-6.77 -4,-10.17 -0.64,-1.77 -1.14,-3.76 -0.26,-5.54 0.8,-1.29 2.37,-2.25 3.86,-2.45 z"
             transform="rotate(180,564.75,786.2)"
             style="fill:none;fill-opacity:1;fill-rule:nonzero;stroke:#ffffff;stroke-width:0.320883;stroke-linecap:butt;stroke-linejoin:miter;stroke-miterlimit:40;stroke-dasharray:none;stroke-opacity:1"
             id="path35" />
        </g>
        <g
           transform="matrix(1,0,0,0.95,-190.33,136.0231)"
           id="use1441"
           style="fill:none;fill-opacity:1;stroke:#ffffff;stroke-width:0.320883;stroke-miterlimit:40;stroke-dasharray:none;stroke-opacity:1">
          <path
             d="m 585.84,796.83 c -0.65,0.05 -2.12,0.95 0.23,-0.34 0.48,-0.26 -0.87,0.66 -1.17,1.11 -0.89,1.73 -0.46,3.67 0.15,5.43 1.29,3.4 2.77,6.73 4.02,10.15 0.75,1.79 0.1,3.43 -1.01,4.92 -1.17,1.45 -2.66,2.62 -4.2,3.67 l -1.55,0.61 c 1.55,-1.03 3.05,-2.19 4.24,-3.63 1.09,-1.43 1.75,-3.02 1.08,-4.77 -1.16,-3.45 -2.7,-6.77 -4,-10.17 -0.64,-1.77 -1.14,-3.76 -0.26,-5.54 0.8,-1.29 2.37,-2.25 3.86,-2.45 z"
             transform="translate(-41.66,-51.43)"
             style="fill:none;fill-opacity:1;fill-rule:nonzero;stroke:#ffffff;stroke-width:0.320883;stroke-linecap:butt;stroke-linejoin:miter;stroke-miterlimit:40;stroke-dasharray:none;stroke-opacity:1"
             id="path36" />
          <path
             d="m 585.84,796.83 c -0.65,0.05 -2.12,0.95 0.23,-0.34 0.48,-0.26 -0.87,0.66 -1.17,1.11 -0.89,1.73 -0.46,3.67 0.15,5.43 1.29,3.4 2.77,6.73 4.02,10.15 0.75,1.79 0.1,3.43 -1.01,4.92 -1.17,1.45 -2.66,2.62 -4.2,3.67 l -1.55,0.61 c 1.55,-1.03 3.05,-2.19 4.24,-3.63 1.09,-1.43 1.75,-3.02 1.08,-4.77 -1.16,-3.45 -2.7,-6.77 -4,-10.17 -0.64,-1.77 -1.14,-3.76 -0.26,-5.54 0.8,-1.29 2.37,-2.25 3.86,-2.45 z"
             transform="rotate(180,564.75,786.2)"
             style="fill:none;fill-opacity:1;fill-rule:nonzero;stroke:#ffffff;stroke-width:0.320883;stroke-linecap:butt;stroke-linejoin:miter;stroke-miterlimit:40;stroke-dasharray:none;stroke-opacity:1"
             id="path37" />
        </g>
        <g
           transform="matrix(1,0,0,0.95,-190.33,163.2043)"
           id="use1442"
           style="fill:none;fill-opacity:1;stroke:#ffffff;stroke-width:0.320883;stroke-miterlimit:40;stroke-dasharray:none;stroke-opacity:1">
          <path
             d="m 585.84,796.83 c -0.65,0.05 -2.12,0.95 0.23,-0.34 0.48,-0.26 -0.87,0.66 -1.17,1.11 -0.89,1.73 -0.46,3.67 0.15,5.43 1.29,3.4 2.77,6.73 4.02,10.15 0.75,1.79 0.1,3.43 -1.01,4.92 -1.17,1.45 -2.66,2.62 -4.2,3.67 l -1.55,0.61 c 1.55,-1.03 3.05,-2.19 4.24,-3.63 1.09,-1.43 1.75,-3.02 1.08,-4.77 -1.16,-3.45 -2.7,-6.77 -4,-10.17 -0.64,-1.77 -1.14,-3.76 -0.26,-5.54 0.8,-1.29 2.37,-2.25 3.86,-2.45 z"
             transform="translate(-41.66,-51.43)"
             style="fill:none;fill-opacity:1;fill-rule:nonzero;stroke:#ffffff;stroke-width:0.320883;stroke-linecap:butt;stroke-linejoin:miter;stroke-miterlimit:40;stroke-dasharray:none;stroke-opacity:1"
             id="path38" />
          <path
             d="m 585.84,796.83 c -0.65,0.05 -2.12,0.95 0.23,-0.34 0.48,-0.26 -0.87,0.66 -1.17,1.11 -0.89,1.73 -0.46,3.67 0.15,5.43 1.29,3.4 2.77,6.73 4.02,10.15 0.75,1.79 0.1,3.43 -1.01,4.92 -1.17,1.45 -2.66,2.62 -4.2,3.67 l -1.55,0.61 c 1.55,-1.03 3.05,-2.19 4.24,-3.63 1.09,-1.43 1.75,-3.02 1.08,-4.77 -1.16,-3.45 -2.7,-6.77 -4,-10.17 -0.64,-1.77 -1.14,-3.76 -0.26,-5.54 0.8,-1.29 2.37,-2.25 3.86,-2.45 z"
             transform="rotate(180,564.75,786.2)"
             style="fill:none;fill-opacity:1;fill-rule:nonzero;stroke:#ffffff;stroke-width:0.320883;stroke-linecap:butt;stroke-linejoin:miter;stroke-miterlimit:40;stroke-dasharray:none;stroke-opacity:1"
             id="path39" />
        </g>
        <g
           transform="matrix(1,0,0,0.95,-190.33,190.3953)"
           id="use1443"
           style="fill:none;fill-opacity:1;stroke:#ffffff;stroke-width:0.320883;stroke-miterlimit:40;stroke-dasharray:none;stroke-opacity:1">
          <path
             d="m 585.84,796.83 c -0.65,0.05 -2.12,0.95 0.23,-0.34 0.48,-0.26 -0.87,0.66 -1.17,1.11 -0.89,1.73 -0.46,3.67 0.15,5.43 1.29,3.4 2.77,6.73 4.02,10.15 0.75,1.79 0.1,3.43 -1.01,4.92 -1.17,1.45 -2.66,2.62 -4.2,3.67 l -1.55,0.61 c 1.55,-1.03 3.05,-2.19 4.24,-3.63 1.09,-1.43 1.75,-3.02 1.08,-4.77 -1.16,-3.45 -2.7,-6.77 -4,-10.17 -0.64,-1.77 -1.14,-3.76 -0.26,-5.54 0.8,-1.29 2.37,-2.25 3.86,-2.45 z"
             transform="translate(-41.66,-51.43)"
             style="fill:none;fill-opacity:1;fill-rule:nonzero;stroke:#ffffff;stroke-width:0.320883;stroke-linecap:butt;stroke-linejoin:miter;stroke-miterlimit:40;stroke-dasharray:none;stroke-opacity:1"
             id="path40" />
          <path
             d="m 585.84,796.83 c -0.65,0.05 -2.12,0.95 0.23,-0.34 0.48,-0.26 -0.87,0.66 -1.17,1.11 -0.89,1.73 -0.46,3.67 0.15,5.43 1.29,3.4 2.77,6.73 4.02,10.15 0.75,1.79 0.1,3.43 -1.01,4.92 -1.17,1.45 -2.66,2.62 -4.2,3.67 l -1.55,0.61 c 1.55,-1.03 3.05,-2.19 4.24,-3.63 1.09,-1.43 1.75,-3.02 1.08,-4.77 -1.16,-3.45 -2.7,-6.77 -4,-10.17 -0.64,-1.77 -1.14,-3.76 -0.26,-5.54 0.8,-1.29 2.37,-2.25 3.86,-2.45 z"
             transform="rotate(180,564.75,786.2)"
             style="fill:none;fill-opacity:1;fill-rule:nonzero;stroke:#ffffff;stroke-width:0.320883;stroke-linecap:butt;stroke-linejoin:miter;stroke-miterlimit:40;stroke-dasharray:none;stroke-opacity:1"
             id="path41" />
        </g>
        <g
           transform="matrix(1,0,0,0.95,-190.33,217.5862)"
           id="use1444"
           style="fill:none;fill-opacity:1;stroke:#ffffff;stroke-width:0.320883;stroke-miterlimit:40;stroke-dasharray:none;stroke-opacity:1">
          <path
             d="m 585.84,796.83 c -0.65,0.05 -2.12,0.95 0.23,-0.34 0.48,-0.26 -0.87,0.66 -1.17,1.11 -0.89,1.73 -0.46,3.67 0.15,5.43 1.29,3.4 2.77,6.73 4.02,10.15 0.75,1.79 0.1,3.43 -1.01,4.92 -1.17,1.45 -2.66,2.62 -4.2,3.67 l -1.55,0.61 c 1.55,-1.03 3.05,-2.19 4.24,-3.63 1.09,-1.43 1.75,-3.02 1.08,-4.77 -1.16,-3.45 -2.7,-6.77 -4,-10.17 -0.64,-1.77 -1.14,-3.76 -0.26,-5.54 0.8,-1.29 2.37,-2.25 3.86,-2.45 z"
             transform="translate(-41.66,-51.43)"
             style="fill:none;fill-opacity:1;fill-rule:nonzero;stroke:#ffffff;stroke-width:0.320883;stroke-linecap:butt;stroke-linejoin:miter;stroke-miterlimit:40;stroke-dasharray:none;stroke-opacity:1"
             id="path42" />
          <path
             d="m 585.84,796.83 c -0.65,0.05 -2.12,0.95 0.23,-0.34 0.48,-0.26 -0.87,0.66 -1.17,1.11 -0.89,1.73 -0.46,3.67 0.15,5.43 1.29,3.4 2.77,6.73 4.02,10.15 0.75,1.79 0.1,3.43 -1.01,4.92 -1.17,1.45 -2.66,2.62 -4.2,3.67 l -1.55,0.61 c 1.55,-1.03 3.05,-2.19 4.24,-3.63 1.09,-1.43 1.75,-3.02 1.08,-4.77 -1.16,-3.45 -2.7,-6.77 -4,-10.17 -0.64,-1.77 -1.14,-3.76 -0.26,-5.54 0.8,-1.29 2.37,-2.25 3.86,-2.45 z"
             transform="rotate(180,564.75,786.2)"
             style="fill:none;fill-opacity:1;fill-rule:nonzero;stroke:#ffffff;stroke-width:0.320883;stroke-linecap:butt;stroke-linejoin:miter;stroke-miterlimit:40;stroke-dasharray:none;stroke-opacity:1"
             id="path43" />
        </g>
      </g>
      <use
         transform="translate(129.5877,-0.313128)"
         xlink:href="#g_lace"
         id="use1445" />
      <g
         transform="translate(-145.1693,-59.66309)"
         id="g_lace2">
        <g
           transform="matrix(0,-1,0.95,0,-199.6521,1358.323)"
           id="use1446"
           style="fill:none;fill-opacity:1;stroke:#ffffff;stroke-width:0.320883;stroke-miterlimit:40;stroke-dasharray:none;stroke-opacity:1">
          <path
             d="m 585.84,796.83 c -0.65,0.05 -2.12,0.95 0.23,-0.34 0.48,-0.26 -0.87,0.66 -1.17,1.11 -0.89,1.73 -0.46,3.67 0.15,5.43 1.29,3.4 2.77,6.73 4.02,10.15 0.75,1.79 0.1,3.43 -1.01,4.92 -1.17,1.45 -2.66,2.62 -4.2,3.67 l -1.55,0.61 c 1.55,-1.03 3.05,-2.19 4.24,-3.63 1.09,-1.43 1.75,-3.02 1.08,-4.77 -1.16,-3.45 -2.7,-6.77 -4,-10.17 -0.64,-1.77 -1.14,-3.76 -0.26,-5.54 0.8,-1.29 2.37,-2.25 3.86,-2.45 z"
             transform="translate(-41.66,-51.43)"
             style="fill:none;fill-opacity:1;fill-rule:nonzero;stroke:#ffffff;stroke-width:0.320883;stroke-linecap:butt;stroke-linejoin:miter;stroke-miterlimit:40;stroke-dasharray:none;stroke-opacity:1"
             id="path44" />
          <path
             d="m 585.84,796.83 c -0.65,0.05 -2.12,0.95 0.23,-0.34 0.48,-0.26 -0.87,0.66 -1.17,1.11 -0.89,1.73 -0.46,3.67 0.15,5.43 1.29,3.4 2.77,6.73 4.02,10.15 0.75,1.79 0.1,3.43 -1.01,4.92 -1.17,1.45 -2.66,2.62 -4.2,3.67 l -1.55,0.61 c 1.55,-1.03 3.05,-2.19 4.24,-3.63 1.09,-1.43 1.75,-3.02 1.08,-4.77 -1.16,-3.45 -2.7,-6.77 -4,-10.17 -0.64,-1.77 -1.14,-3.76 -0.26,-5.54 0.8,-1.29 2.37,-2.25 3.86,-2.45 z"
             transform="rotate(180,564.75,786.2)"
             style="fill:none;fill-opacity:1;fill-rule:nonzero;stroke:#ffffff;stroke-width:0.320883;stroke-linecap:butt;stroke-linejoin:miter;stroke-miterlimit:40;stroke-dasharray:none;stroke-opacity:1"
             id="path45" />
        </g>
        <g
           transform="matrix(0,-1,0.95,0,-172.4611,1358.323)"
           id="use1447"
           style="fill:none;fill-opacity:1;stroke:#ffffff;stroke-width:0.320883;stroke-miterlimit:40;stroke-dasharray:none;stroke-opacity:1">
          <path
             d="m 585.84,796.83 c -0.65,0.05 -2.12,0.95 0.23,-0.34 0.48,-0.26 -0.87,0.66 -1.17,1.11 -0.89,1.73 -0.46,3.67 0.15,5.43 1.29,3.4 2.77,6.73 4.02,10.15 0.75,1.79 0.1,3.43 -1.01,4.92 -1.17,1.45 -2.66,2.62 -4.2,3.67 l -1.55,0.61 c 1.55,-1.03 3.05,-2.19 4.24,-3.63 1.09,-1.43 1.75,-3.02 1.08,-4.77 -1.16,-3.45 -2.7,-6.77 -4,-10.17 -0.64,-1.77 -1.14,-3.76 -0.26,-5.54 0.8,-1.29 2.37,-2.25 3.86,-2.45 z"
             transform="translate(-41.66,-51.43)"
             style="fill:none;fill-opacity:1;fill-rule:nonzero;stroke:#ffffff;stroke-width:0.320883;stroke-linecap:butt;stroke-linejoin:miter;stroke-miterlimit:40;stroke-dasharray:none;stroke-opacity:1"
             id="path46" />
          <path
             d="m 585.84,796.83 c -0.65,0.05 -2.12,0.95 0.23,-0.34 0.48,-0.26 -0.87,0.66 -1.17,1.11 -0.89,1.73 -0.46,3.67 0.15,5.43 1.29,3.4 2.77,6.73 4.02,10.15 0.75,1.79 0.1,3.43 -1.01,4.92 -1.17,1.45 -2.66,2.62 -4.2,3.67 l -1.55,0.61 c 1.55,-1.03 3.05,-2.19 4.24,-3.63 1.09,-1.43 1.75,-3.02 1.08,-4.77 -1.16,-3.45 -2.7,-6.77 -4,-10.17 -0.64,-1.77 -1.14,-3.76 -0.26,-5.54 0.8,-1.29 2.37,-2.25 3.86,-2.45 z"
             transform="rotate(180,564.75,786.2)"
             style="fill:none;fill-opacity:1;fill-rule:nonzero;stroke:#ffffff;stroke-width:0.320883;stroke-linecap:butt;stroke-linejoin:miter;stroke-miterlimit:40;stroke-dasharray:none;stroke-opacity:1"
             id="path47" />
        </g>
        <g
           transform="matrix(0,-1,0.95,0,-145.2701,1358.323)"
           id="use1448"
           style="fill:none;fill-opacity:1;stroke:#ffffff;stroke-width:0.320883;stroke-miterlimit:40;stroke-dasharray:none;stroke-opacity:1">
          <path
             d="m 585.84,796.83 c -0.65,0.05 -2.12,0.95 0.23,-0.34 0.48,-0.26 -0.87,0.66 -1.17,1.11 -0.89,1.73 -0.46,3.67 0.15,5.43 1.29,3.4 2.77,6.73 4.02,10.15 0.75,1.79 0.1,3.43 -1.01,4.92 -1.17,1.45 -2.66,2.62 -4.2,3.67 l -1.55,0.61 c 1.55,-1.03 3.05,-2.19 4.24,-3.63 1.09,-1.43 1.75,-3.02 1.08,-4.77 -1.16,-3.45 -2.7,-6.77 -4,-10.17 -0.64,-1.77 -1.14,-3.76 -0.26,-5.54 0.8,-1.29 2.37,-2.25 3.86,-2.45 z"
             transform="translate(-41.66,-51.43)"
             style="fill:none;fill-opacity:1;fill-rule:nonzero;stroke:#ffffff;stroke-width:0.320883;stroke-linecap:butt;stroke-linejoin:miter;stroke-miterlimit:40;stroke-dasharray:none;stroke-opacity:1"
             id="path48" />
          <path
             d="m 585.84,796.83 c -0.65,0.05 -2.12,0.95 0.23,-0.34 0.48,-0.26 -0.87,0.66 -1.17,1.11 -0.89,1.73 -0.46,3.67 0.15,5.43 1.29,3.4 2.77,6.73 4.02,10.15 0.75,1.79 0.1,3.43 -1.01,4.92 -1.17,1.45 -2.66,2.62 -4.2,3.67 l -1.55,0.61 c 1.55,-1.03 3.05,-2.19 4.24,-3.63 1.09,-1.43 1.75,-3.02 1.08,-4.77 -1.16,-3.45 -2.7,-6.77 -4,-10.17 -0.64,-1.77 -1.14,-3.76 -0.26,-5.54 0.8,-1.29 2.37,-2.25 3.86,-2.45 z"
             transform="rotate(180,564.75,786.2)"
             style="fill:none;fill-opacity:1;fill-rule:nonzero;stroke:#ffffff;stroke-width:0.320883;stroke-linecap:butt;stroke-linejoin:miter;stroke-miterlimit:40;stroke-dasharray:none;stroke-opacity:1"
             id="path49" />
        </g>
        <g
           transform="matrix(0,-1,0.95,0,-118.0889,1358.323)"
           id="use1449"
           style="fill:none;fill-opacity:1;stroke:#ffffff;stroke-width:0.320883;stroke-miterlimit:40;stroke-dasharray:none;stroke-opacity:1">
          <path
             d="m 585.84,796.83 c -0.65,0.05 -2.12,0.95 0.23,-0.34 0.48,-0.26 -0.87,0.66 -1.17,1.11 -0.89,1.73 -0.46,3.67 0.15,5.43 1.29,3.4 2.77,6.73 4.02,10.15 0.75,1.79 0.1,3.43 -1.01,4.92 -1.17,1.45 -2.66,2.62 -4.2,3.67 l -1.55,0.61 c 1.55,-1.03 3.05,-2.19 4.24,-3.63 1.09,-1.43 1.75,-3.02 1.08,-4.77 -1.16,-3.45 -2.7,-6.77 -4,-10.17 -0.64,-1.77 -1.14,-3.76 -0.26,-5.54 0.8,-1.29 2.37,-2.25 3.86,-2.45 z"
             transform="translate(-41.66,-51.43)"
             style="fill:none;fill-opacity:1;fill-rule:nonzero;stroke:#ffffff;stroke-width:0.320883;stroke-linecap:butt;stroke-linejoin:miter;stroke-miterlimit:40;stroke-dasharray:none;stroke-opacity:1"
             id="path50" />
          <path
             d="m 585.84,796.83 c -0.65,0.05 -2.12,0.95 0.23,-0.34 0.48,-0.26 -0.87,0.66 -1.17,1.11 -0.89,1.73 -0.46,3.67 0.15,5.43 1.29,3.4 2.77,6.73 4.02,10.15 0.75,1.79 0.1,3.43 -1.01,4.92 -1.17,1.45 -2.66,2.62 -4.2,3.67 l -1.55,0.61 c 1.55,-1.03 3.05,-2.19 4.24,-3.63 1.09,-1.43 1.75,-3.02 1.08,-4.77 -1.16,-3.45 -2.7,-6.77 -4,-10.17 -0.64,-1.77 -1.14,-3.76 -0.26,-5.54 0.8,-1.29 2.37,-2.25 3.86,-2.45 z"
             transform="rotate(180,564.75,786.2)"
             style="fill:none;fill-opacity:1;fill-rule:nonzero;stroke:#ffffff;stroke-width:0.320883;stroke-linecap:butt;stroke-linejoin:miter;stroke-miterlimit:40;stroke-dasharray:none;stroke-opacity:1"
             id="path51" />
        </g>
      </g>
      <use
         transform="translate(0,207.189)"
         xlink:href="#g_lace2"
         id="use1450" />
    </g>
  </g>
</svg>
