<?xml version="1.0" encoding="UTF-8" standalone="no"?>
<svg
   t="1730791551030"
   class="icon"
   viewBox="0 0 512 512"
   version="1.1"
   p-id="2177"
   width="100"
   height="100"
   id="svg1"
   sodipodi:docname="dealer.svg"
   inkscape:version="1.4 (86a8ad7, 2024-10-11)"
   xmlns:inkscape="http://www.inkscape.org/namespaces/inkscape"
   xmlns:sodipodi="http://sodipodi.sourceforge.net/DTD/sodipodi-0.dtd"
   xmlns="http://www.w3.org/2000/svg"
   xmlns:svg="http://www.w3.org/2000/svg">
  <defs
     id="defs1" />
  <sodipodi:namedview
     id="namedview1"
     pagecolor="#ffffff"
     bordercolor="#000000"
     borderopacity="0.25"
     inkscape:showpageshadow="2"
     inkscape:pageopacity="0.0"
     inkscape:pagecheckerboard="0"
     inkscape:deskcolor="#d1d1d1"
     inkscape:zoom="1"
     inkscape:cx="99.5"
     inkscape:cy="99.5"
     inkscape:window-width="2560"
     inkscape:window-height="1377"
     inkscape:window-x="-8"
     inkscape:window-y="-8"
     inkscape:window-maximized="1"
     inkscape:current-layer="svg1" />
  <path
     d="m 439.83877,396.57983 c -33.05101,-13.32171 -97.2354,-28.41271 -97.2354,-28.41271 0,0 0.67681,-18.00513 0,-36.11433 107.6132,1.56113 114.38132,-10.09537 121.14945,-13.11357 C 432.39383,273.35398 428.10736,182.80796 427.31774,173.5452 418.85758,105.47957 398.55321,76.8587 391.78508,66.76334 290.15039,-50.00981 194.38142,21.90663 194.38142,21.90663 128.05379,19.61696 110.68227,75.81794 108.20062,81.64619 96.80761,111.8282 89.13707,168.02918 87.21944,175.00226 71.87834,284.0738 39.50415,318.21069 36.9097,322.89411 c 40.04474,13.32171 130.85043,8.74237 130.85043,8.74237 0,0 0.6768,23.20892 0.6768,37.15509 C 119.48083,375.14021 48.97952,406.46704 41.9858,410.526 -8.7751499,440.60394 0.70023007,512 0.70023007,512 H 510.34008 C 524.32755,424.3681 445.47888,398.86951 439.83877,396.57983 Z M 280.90063,341.41961 c -2.59445,0.62446 -25.15487,11.03205 -50.87375,0 -2.59444,-0.62445 -50.87374,-18.31736 -76.25421,-87.84004 -2.25605,-1.14485 -15.22829,-3.74674 -25.38048,-13.94617 -1.24082,-1.45707 -38.46551,-33.92875 9.81379,-51.62165 3.15845,-1.45706 39.36793,-15.9236 56.51385,-73.99796 2.25603,-2.28967 2.03044,-3.33042 6.65532,-4.78749 0,0 20.75558,54.53578 78.73586,60.36402 0.90242,-5.82824 -7.21933,0.4163 -2.59445,-37.15509 2.59445,1.56114 32.1486,47.14638 68.58368,50.99718 5.97851,1.14483 21.99641,8.84646 36.43507,9.26276 3.83527,0.4163 28.42613,11.55242 4.28648,41.73444 -1.24082,2.18559 -9.24977,12.69725 -30.45657,18.73365 -1.12802,2.18559 -22.33481,68.27379 -75.46459,88.25635 z"
     p-id="2178"
     fill="#d4237a"
     id="path1"
     style="stroke-width:0.520594" />
</svg>
