<?xml version="1.0" encoding="UTF-8" standalone="no"?>
<svg
   t="1730793820912"
   class="icon"
   viewBox="0 0 512 512"
   version="1.1"
   p-id="19920"
   width="100"
   height="100"
   id="svg14"
   sodipodi:docname="player_man.svg"
   inkscape:version="1.4 (86a8ad7, 2024-10-11)"
   xmlns:inkscape="http://www.inkscape.org/namespaces/inkscape"
   xmlns:sodipodi="http://sodipodi.sourceforge.net/DTD/sodipodi-0.dtd"
   xmlns="http://www.w3.org/2000/svg"
   xmlns:svg="http://www.w3.org/2000/svg">
  <defs
     id="defs14" />
  <sodipodi:namedview
     id="namedview14"
     pagecolor="#ffffff"
     bordercolor="#000000"
     borderopacity="0.25"
     inkscape:showpageshadow="2"
     inkscape:pageopacity="0.0"
     inkscape:pagecheckerboard="0"
     inkscape:deskcolor="#d1d1d1"
     inkscape:zoom="1"
     inkscape:cx="100.5"
     inkscape:cy="100.5"
     inkscape:window-width="2560"
     inkscape:window-height="1377"
     inkscape:window-x="-8"
     inkscape:window-y="-8"
     inkscape:window-maximized="1"
     inkscape:current-layer="svg14" />
  <path
     d="M 454.88852,493.35673 443.77325,323.85735 A 34.487704,29.294856 0 0 0 417.75679,297.0784 l -47.75021,-10.2096 a 316.14355,268.54151 0 0 1 -24.56613,-6.16376 l -21.12396,-8.84766 -4.24974,-1.77993 a 19.739549,16.767345 0 0 1 -11.00932,-15.03741 v -5.79977 a 77.218268,65.591439 0 0 1 -28.80647,4.71981 h -18.94138 a 77.147631,65.531438 0 0 1 -32.77604,-6.17776 v 7.25772 a 19.739549,16.767345 0 0 1 -11.00931,15.03741 l -3.12905,1.30995 -21.02035,8.80366 c -8.89976,2.67789 -17.94312,4.9998 -27.10185,6.95573 l -46.43879,9.92961 a 34.487704,29.294856 0 0 0 -26.014116,26.77895 l -11.11526,169.50138 a 15.216686,12.925495 0 0 0 15.19079,13.64346 H 439.69066 a 15.219041,12.927495 0 0 0 15.19786,-13.64346 z"
     fill="#1b87c9"
     p-id="19921"
     id="path1"
     style="stroke-width:0.542514" />
  <path
     d="m 261.74986,507.00019 h 19.32046 V 342.83061 l 17.94546,-15.24341 -15.44506,-10.55559 -21.82086,19.80923 z"
     fill="#30a9e5"
     p-id="19922"
     id="path2"
     style="stroke-width:0.542514" />
  <path
     d="m 387.2363,509.22212 a 5.8860769,4.9998046 0 0 1 -5.88607,-4.99982 V 394.4366 a 5.8860772,4.9998049 0 1 1 11.77215,0 v 109.7857 a 5.8860769,4.9998046 0 0 1 -5.88608,4.99982 z m -236.87456,0 a 5.8860769,4.9998046 0 0 1 -5.88609,-4.99982 V 394.4366 a 5.8860772,4.9998049 0 1 1 11.77215,0 v 109.7857 a 5.8860769,4.9998046 0 0 1 -5.88606,4.99982 z"
     fill="#231f20"
     p-id="19923"
     id="path3"
     style="stroke-width:0.542514" />
  <path
     d="M 439.69537,512 H 97.900314 a 21.19694,18.005297 0 0 1 -15.32969,-5.60577 21.194586,18.003297 0 0 1 -5.74011,-13.31349 l 11.11526,-169.50138 a 40.192487,34.140667 0 0 1 30.454556,-31.34878 l 46.4388,-9.9276 a 297.03263,252.30815 0 0 0 26.24719,-6.72375 l 23.83626,-9.9836 a 13.766357,11.693543 0 0 0 7.72724,-10.55159 v -7.25772 a 5.8860769,4.9998046 0 0 1 8.37942,-4.52783 70.943709,60.261646 0 0 0 30.28269,5.70779 h 18.94139 c 9.16816,0 18.12205,-1.46595 26.61684,-4.35984 a 5.8860769,4.9998046 0 0 1 8.07807,4.64183 v 5.79977 a 13.761648,11.689544 0 0 0 7.72488,10.55159 l 25.02759,10.48158 c 7.78375,2.23992 15.76998,4.23984 23.7468,5.94578 l 47.74785,10.20759 a 40.197197,34.144667 0 0 1 30.45691,31.34878 l 11.11527,169.49938 c 0.32255,4.89781 -1.77052,9.7496 -5.74009,13.31349 C 451.05787,509.96007 445.47079,512 439.69537,512 Z M 234.42198,255.18603 a 25.46317,21.629155 0 0 1 -14.2914,19.37525 l -24.1494,10.1156 a 5.6223808,4.7758135 0 0 1 -0.63805,0.22799 309.04258,262.50975 0 0 1 -27.6269,7.09173 l -46.43878,9.92761 a 28.479196,24.191055 0 0 0 -21.575996,22.20912 l -11.11527,169.49939 a 9.2411411,7.8496935 0 0 0 2.53809,5.88577 9.2411411,7.8496935 0 0 0 6.77604,2.47789 H 439.69537 c 2.59224,0 4.99848,-0.87996 6.77841,-2.47989 1.77994,-1.59994 2.6817,-3.68986 2.53807,-5.88577 L 437.89658,324.13134 a 28.472132,24.185055 0 0 0 -21.576,-22.20713 L 368.57273,291.7166 a 323.71775,274.97526 0 0 1 -25.0276,-6.27975 5.9590644,5.0618023 0 0 1 -0.70632,-0.24999 l -25.37135,-10.62558 a 25.449043,21.617156 0 0 1 -14.25609,-18.33529 82.981913,70.487246 0 0 1 -22.95805,2.7339 h -18.94139 a 82.687611,70.237258 0 0 1 -26.88995,-3.77386 z"
     fill="#231f20"
     p-id="19924"
     id="path4"
     style="stroke-width:0.542514" />
  <path
     d="m 281.07032,512 h -19.32046 a 5.8860769,4.9998046 0 0 1 -5.88608,-4.99981 V 336.84084 c 0,-1.26795 0.56742,-2.48991 1.58688,-3.41587 l 21.82088,-19.80921 a 5.8837222,4.9978045 0 0 1 7.98858,-0.47999 l 15.44742,10.55558 a 5.8837222,4.9978045 0 0 1 0.47088,7.42971 l -16.22204,13.77946 V 507.00019 A 5.8860769,4.9998046 0 0 1 281.07032,512 Z m -13.43439,-9.99962 h 7.5483 V 342.83061 c 0,-1.32595 0.62157,-2.5979 1.72344,-3.53586 l 13.30725,-11.30356 -6.08149,-4.15584 -16.49985,14.98142 v 163.18361 z"
     fill="#231f20"
     p-id="19925"
     id="path5"
     style="stroke-width:0.542514" />
  <path
     d="m 320.06911,270.07745 a 19.739549,16.767345 0 0 1 -11.00933,-15.03741 v -5.79977 a 77.218268,65.591439 0 0 1 -28.80646,4.71981 h -18.94139 a 77.147631,65.531438 0 0 1 -32.77604,-6.17776 v 7.25772 a 19.739549,16.767345 0 0 1 -11.00931,15.03741 l -1.47622,0.61797 38.64797,46.33419 15.24493,12.36952 13.6251,-12.36952 38.48318,-46.12219 z"
     fill="#f9d8b7"
     p-id="19926"
     id="path6"
     style="stroke-width:0.542514" />
  <path
     d="m 352.81217,282.69295 c -2.46037,-0.65396 -4.93017,-1.28394 -7.36936,-1.98791 l -21.12396,-8.84766 -2.26496,-0.94796 -38.48317,46.12219 27.528,18.81127 z m -167.47067,-0.20198 41.87355,53.35191 27.48328,-18.81127 -38.64797,-46.33419 -1.65282,0.69198 -21.02036,8.80366 c -2.66286,0.80197 -5.34456,1.55993 -8.03568,2.29791 z"
     fill="#30a9e5"
     p-id="19927"
     id="path7"
     style="stroke-width:0.542514" />
  <path
     d="m 311.09872,340.84268 c -1.3326,0 -2.63696,-0.38398 -3.68939,-1.10395 l -27.528,-18.81126 a 5.8907859,5.0038047 0 0 1 -1.11366,-6.78774 l 38.48318,-46.1222 a 5.8860769,4.9998046 0 0 1 7.40469,-1.59393 l 23.04516,9.64961 c 1.674,0.47799 3.35977,0.92198 5.0479,1.36596 l 1.82469,0.48198 a 5.8860769,4.9998046 0 0 1 3.13845,7.5457 l -41.71345,53.14992 a 5.8813683,4.995805 0 0 1 -4.89957,2.22591 z m -19.52529,-24.75903 18.1974,12.43552 33.80491,-43.07432 -0.033,-0.008 a 5.7989632,4.9258077 0 0 1 -0.70632,-0.24998 l -18.88719,-7.9117 z m -64.35838,24.75903 a 5.8860769,4.9998046 0 0 1 -4.89721,-2.22591 l -41.87355,-53.35191 a 5.8860769,4.9998046 0 0 1 3.08667,-7.53171 c 2.52865,-0.69397 5.05024,-1.40594 7.55536,-2.15592 l 22.36002,-9.36563 a 5.8884315,5.0018046 0 0 1 7.40705,1.59394 l 38.64798,46.33419 a 5.8860769,4.9998046 0 0 1 -1.11129,6.78374 l -27.48327,18.81126 a 5.8743046,4.989805 0 0 1 -3.69176,1.10795 z m -32.70775,-55.68782 34.03095,43.36231 18.15972,-12.42952 -32.54765,-39.02047 -18.16914,7.6097 a 5.6223808,4.7758135 0 0 1 -0.63805,0.22799 z"
     fill="#231f20"
     p-id="19928"
     id="path8"
     style="stroke-width:0.542514" />
  <path
     d="m 357.71645,122.45721 a 34.949171,29.686841 0 0 1 16.80593,6.04177 C 396.09602,66.32941 367.83815,45.57022 355.23017,40.48642 351.60436,39.02448 348.61892,36.64857 346.43873,33.78468 339.29774,24.39905 319.17677,4.9998 274.87345,4.9998 c -58.43933,0 -84.15206,31.76876 -107.52686,37.72653 -13.6392,3.47587 -20.11626,-0.48398 -23.14406,-4.38583 -2.43447,-3.13588 -7.60714,-3.66185 -11.05876,-1.31595 -24.82275,16.87135 -30.45455,76.35703 20.17983,87.1106 44.31039,9.40963 73.74078,-15.87138 86.1133,-22.75511 1.55393,-0.86397 3.49869,0.45598 2.84652,1.93393 l -2.87947,6.52174 a 3.7082285,3.1498769 0 0 0 3.67525,4.24183 c 28.78765,-1.33795 49.12757,-12.6755 57.67651,-18.41328 a 2.9995448,2.5479003 0 0 1 4.84542,1.70393 c 3.65643,26.23298 36.96691,36.28059 44.77656,38.28651 0.59097,0.152 4.67355,1.23195 7.33876,1.87193 z"
     fill="#e8b16d"
     p-id="19929"
     id="path9"
     style="stroke-width:0.542514" />
  <path
     d="m 357.71645,122.45721 v 58.95171 c 17.10023,-1.98193 30.28976,-14.40545 30.28976,-29.47486 0,-15.07141 -13.18953,-27.49492 -30.28976,-29.47685 z M 305.60113,97.36819 a 2.9995448,2.5479003 0 0 0 -4.84542,-1.70393 c -8.55129,5.73778 -28.88886,17.07533 -57.67885,18.41328 -2.6605,0.124 -4.61233,-2.12191 -3.67527,-4.24183 l 2.87948,-6.52174 c 0.65217,-1.47395 -1.28553,-2.7999 -2.8371,-1.93793 -9.26468,5.1498 -28.10013,20.62919 -55.59047,24.12305 v 62.66556 c 0,36.33858 34.68078,65.79743 77.46079,65.79743 h 18.94138 c 42.78002,0 77.46078,-29.45885 77.46078,-65.79743 v -50.63802 c -2.66286,-0.63798 -6.74779,-1.71993 -7.33876,-1.87193 -7.80965,-2.00592 -41.12013,-12.05353 -44.77656,-38.28651 z M 171.7847,126.18507 c -10.47251,5.14179 -17.5311,14.72942 -17.5311,25.74699 0,14.86543 12.83635,27.15295 29.5999,29.38686 v -55.81983 a 75.450089,64.089496 0 0 1 -12.0688,0.68598 z"
     fill="#f9d8b7"
     p-id="19930"
     id="path10"
     style="stroke-width:0.542514" />
  <path
     d="m 357.71645,142.52644 a 5.8860769,4.9998046 0 0 1 -1.59865,-0.18801 c -2.24142,-0.53797 -5.46464,-1.37994 -6.86553,-1.74793 l -0.57918,-0.15199 c -4.24034,-1.08795 -15.23789,-4.32183 -25.70568,-10.80157 -11.96051,-7.40371 -19.63124,-16.88135 -22.4024,-27.60293 -11.05171,6.70574 -30.6853,15.80339 -57.1656,17.03534 a 9.4860019,8.0576855 0 0 1 -8.25699,-3.31788 9.5778247,8.1356823 0 0 1 -1.84823,-4.32183 c -16.01247,10.14561 -43.47691,25.609 -81.40443,17.55532 -21.66312,-4.59982 -36.3477,-17.8493 -41.34852,-37.30854 -5.60589,-21.81315 2.70288,-47.53614 18.92021,-58.55571 a 13.73104,11.663544 0 0 1 10.69147,-2.40991 13.196585,11.209562 0 0 1 8.96097,4.87781 c 2.82296,3.63586 8.38647,4.42783 16.53987,2.34991 6.65127,-1.69594 14.10774,-6.11376 22.7438,-11.23156 C 207.41901,15.4374 233.46843,0 274.87109,0 c 47.71725,0 69.40157,21.72915 76.50959,31.07079 1.67164,2.19791 3.8754,3.89184 6.3711,4.89981 5.24331,2.11391 18.21858,8.81765 25.45609,25.375 7.6778,17.55732 6.65127,40.62641 -3.04192,68.56732 a 5.8860769,4.9998046 0 0 1 -9.27176,2.52591 29.324435,24.909027 0 0 0 -7.29637,-3.54386 v 8.63166 a 5.8860769,4.9998046 0 0 1 -5.88137,4.99981 z M 302.62982,90.11248 a 8.8997483,7.5597046 0 0 1 8.81735,6.66574 c 3.21145,23.04909 33.62127,32.25674 40.38085,34.02467 v -8.34768 a 5.8790139,4.9938051 0 0 1 6.67952,-4.9538 c 4.32745,0.50198 8.53009,1.59594 12.43846,3.22787 17.67942,-57.84974 -11.9299,-73.17914 -18.24685,-75.72704 -4.47341,-1.80593 -8.35116,-4.74581 -11.20943,-8.50567 -18.1974,-23.91506 -52.6545,-26.49896 -66.62334,-26.49896 -37.7015,0 -61.01036,13.81146 -79.7375,24.90903 -9.46482,5.60778 -17.6394,10.45159 -26.0965,12.6075 -17.98551,4.58383 -26.36258,-2.05792 -29.75061,-6.42174 a 1.3655698,1.1599546 0 0 0 -0.97002,-0.50598 1.9329875,1.6419357 0 0 0 -1.49976,0.34198 c -12.79869,8.69966 -19.42406,30.50881 -14.7717,48.6161 2.82531,10.99957 10.79506,25.08703 32.70304,29.74084 35.19873,7.47371 59.95322,-8.43167 74.74376,-17.9373 2.55925,-1.64594 4.77243,-3.06788 6.71955,-4.14984 a 7.7884571,6.6157415 0 0 1 9.15402,0.36799 7.7861024,6.6137416 0 0 1 2.42742,7.50371 l -1.68107,3.80985 c 25.86814,-1.98993 44.155,-12.54551 50.99698,-17.13733 a 8.9162295,7.5737043 0 0 1 5.52583,-1.62994 z"
     fill="#231f20"
     p-id="19931"
     id="path11"
     style="stroke-width:0.542514" />
  <path
     d="m 357.71645,186.40872 a 5.8860769,4.9998046 0 0 1 -5.88607,-4.9998 v -58.95171 a 5.8790139,4.9938051 0 0 1 6.67951,-4.9538 c 20.17041,2.3379 35.38004,17.13933 35.38004,34.43065 0,17.29132 -15.20963,32.09075 -35.38004,34.42866 a 5.9896717,5.0878011 0 0 1 -0.79344,0.046 z m 5.88608,-57.51775 v 46.08219 c 10.91514,-3.65185 18.5176,-12.72349 18.5176,-23.0411 0,-10.31759 -7.60482,-19.38924 -18.5176,-23.04109 z"
     fill="#231f20"
     p-id="19932"
     id="path12"
     style="stroke-width:0.542514" />
  <path
     d="m 280.25332,258.95989 h -18.94139 c -45.95849,0 -83.34686,-31.75876 -83.34686,-70.79724 v -62.66356 c 0,-2.47589 2.13312,-4.57781 5.01494,-4.9458 20.71899,-2.6339 36.24175,-12.6075 46.50943,-19.20725 2.56397,-1.64794 4.77948,-3.07188 6.72896,-4.15584 a 7.7790395,6.6077419 0 0 1 9.14226,0.36999 7.7908116,6.6177415 0 0 1 2.42977,7.50971 l -1.68106,3.80785 c 25.86813,-1.98993 44.15499,-12.54551 50.99697,-17.13734 a 8.9044574,7.5637047 0 0 1 8.90916,-1.05595 8.9068119,7.5657046 0 0 1 5.43167,6.09576 v 0.002 c 3.25383,23.34909 34.41943,32.49273 40.63513,34.08867 l 0.63569,0.16599 c 1.34439,0.35199 4.44517,1.16396 6.59712,1.67794 a 5.8860769,4.9998046 0 0 1 4.28742,4.81181 v 50.63602 c 0,39.03848 -37.39071,70.79724 -83.34921,70.79724 z M 189.73724,129.66894 v 58.49571 c 0,33.52469 32.10736,60.79763 71.57469,60.79763 h 18.94139 c 39.46732,0 71.5747,-27.27494 71.5747,-60.79763 v -46.90217 l -2.57811,-0.66998 -0.57918,-0.15199 c -7.09155,-1.81993 -41.32026,-11.92153 -48.11278,-38.4025 -11.05407,6.70374 -30.68295,15.80139 -57.1609,17.03134 a 9.5448628,8.1076835 0 0 1 -8.25699,-3.31788 9.5754701,8.1336823 0 0 1 -1.84587,-4.32183 c -9.89566,6.26177 -24.61555,14.80143 -43.55695,18.2393 z M 299.75743,97.95817 Z"
     fill="#231f20"
     p-id="19933"
     id="path13"
     style="stroke-width:0.542514" />
  <path
     d="m 183.85115,186.31872 c -0.30372,0 -0.60744,-0.02 -0.91116,-0.06 -20.03384,-2.66789 -34.57482,-17.10533 -34.57482,-34.32466 0,-12.35352 7.84497,-23.87707 20.47177,-30.07682 a 6.0273427,5.1198 0 0 1 3.01368,-0.66998 70.534035,59.913657 0 0 0 11.12703,-0.63197 5.8790139,4.9938051 0 0 1 6.75959,4.9438 v 55.81983 a 5.8931406,5.0058046 0 0 1 -5.88609,4.9998 z M 173.4375,131.18688 c -8.2405,4.54582 -13.29781,12.37951 -13.29781,20.74518 0,10.2136 7.18335,19.05126 17.82774,22.82111 v -43.70429 a 80.309634,68.217335 0 0 1 -4.52993,0.138 z m 95.6935,85.36667 a 31.149119,26.458967 0 0 1 -25.83989,-11.66756 5.8860769,4.9998046 0 0 1 9.75441,-5.59778 19.400508,16.479356 0 0 0 32.17329,0 5.8859425,4.9996906 0 1 1 9.75441,5.59778 31.165601,26.472966 0 0 1 -25.84222,11.66756 z m 43.37332,-68.60733 c -0.93235,0 -1.88119,-0.18799 -2.76174,-0.58798 -1.46211,-0.66197 -4.82659,-1.32994 -9.03867,-1.32994 -4.20973,0 -7.5742,0.66797 -9.04102,1.32994 a 5.8860769,4.9998046 0 1 1 -5.52821,-8.82765 c 3.51753,-1.58994 8.82912,-2.5019 14.56923,-2.5019 5.74245,0 11.05404,0.91196 14.56922,2.5019 a 5.8837222,4.9978045 0 0 1 2.42977,6.76173 5.8743046,4.989805 0 0 1 -5.19858,2.6539 z m -63.44486,0 c -0.93235,0 -1.87882,-0.18799 -2.75938,-0.58598 -1.46447,-0.66197 -4.82658,-1.32994 -9.03867,-1.32994 -4.21208,0 -7.57421,0.66797 -9.03864,1.32994 a 5.8860769,4.9998046 0 0 1 -5.52821,-8.82765 c 3.5175,-1.58994 8.82911,-2.50191 14.5692,-2.5019 5.74011,0 11.0517,0.91196 14.56923,2.5019 a 5.8860769,4.9998046 0 0 1 -2.77353,9.41363 z m -10.86099,19.39724 a 7.0632926,5.9997658 0 0 1 -7.06329,-5.99977 v -1.09595 a 7.0632926,5.9997658 0 1 1 14.12658,0 v 1.09595 a 7.0632926,5.9997658 0 0 1 -7.06329,5.99977 z m 61.86268,0.83997 a 7.0632926,5.9997658 0 0 1 -7.06329,-5.99977 v -1.09595 a 7.0632926,5.9997658 0 1 1 14.12658,0 v 1.09595 a 7.0632926,5.9997658 0 0 1 -7.06329,5.99977 z m -30.11789,166.21751 a 5.8954945,5.0078042 0 0 1 -4.06609,-1.38395 l -15.24494,-12.36952 a 5.9096212,5.0198038 0 0 1 -0.73694,-0.72396 l -38.64798,-46.3342 a 5.8907859,5.0038047 0 0 1 2.19668,-7.37371 l 1.47624,-0.61997 a 13.771065,11.697543 0 0 0 7.72959,-10.55359 v -7.25772 a 5.8860769,4.9998046 0 0 1 8.37942,-4.52782 70.943709,60.261646 0 0 0 30.28269,5.70778 h 18.94139 c 9.16816,0 18.12205,-1.46595 26.61684,-4.35984 a 5.8860769,4.9998046 0 0 1 8.07807,4.64183 v 5.79977 a 13.761648,11.689544 0 0 0 7.72488,10.55159 h 0.003 l 1.98243,0.83197 a 5.8860769,4.9998046 0 0 1 2.19669,7.3737 l -38.48318,46.12421 c -0.15303,0.18398 -0.32491,0.35998 -0.5062,0.52398 L 274.24076,332.821 a 5.8907859,5.0038047 0 0 1 -4.13203,1.58194 z m -10.7668,-20.65319 10.53373,8.54766 9.28823,-8.43167 34.50183,-41.35239 a 25.41608,21.589156 0 0 1 -10.28888,-16.28536 82.981913,70.487246 0 0 1 -22.95805,2.7339 h -18.94139 c -9.25527,0 -18.26333,-1.26595 -26.88995,-3.77386 a 25.432562,21.603156 0 0 1 -9.88155,17.03934 z"
     fill="#231f20"
     p-id="19934"
     id="path14"
     style="stroke-width:0.542514" />
</svg>
