<?xml version="1.0" encoding="UTF-8" standalone="no"?>
<!-- Created with Inkscape (http://www.inkscape.org/) -->

<svg
   width="74mm"
   height="105mm"
   viewBox="0 0 74 105"
   version="1.1"
   id="svg1"
   inkscape:version="1.3.2 (091e20e, 2023-11-25, custom)"
   sodipodi:docname="Spade_A.svg"
   xmlns:inkscape="http://www.inkscape.org/namespaces/inkscape"
   xmlns:sodipodi="http://sodipodi.sourceforge.net/DTD/sodipodi-0.dtd"
   xmlns="http://www.w3.org/2000/svg"
   xmlns:svg="http://www.w3.org/2000/svg">
  <sodipodi:namedview
     id="namedview1"
     pagecolor="#ffffff"
     bordercolor="#000000"
     borderopacity="0.25"
     inkscape:showpageshadow="2"
     inkscape:pageopacity="0.0"
     inkscape:pagecheckerboard="0"
     inkscape:deskcolor="#d1d1d1"
     inkscape:document-units="mm"
     inkscape:zoom="0.98603159"
     inkscape:cx="397.55319"
     inkscape:cy="236.80783"
     inkscape:window-width="1920"
     inkscape:window-height="1001"
     inkscape:window-x="-9"
     inkscape:window-y="-9"
     inkscape:window-maximized="1"
     inkscape:current-layer="club" />
  <defs
     id="defs1" />
  <g
     inkscape:label="club1"
     inkscape:groupmode="layer"
     id="club"
     transform="translate(-81.85335,-116.02149)">
    <g
       id="rect"
       transform="matrix(0.33468551,0,0,0.35634692,90.738379,208.24221)">
      <path
         style="fill:#ffffff;stroke:#000000;stroke-width:2.5"
         d="m 0,0 c 0,3.78 3.09,6.87 6.87,6.87 h 152.845 c 3.77,0 6.86,-3.09 6.86,-6.87 v -228.4 c 0,-3.78 -3.09,-6.87 -6.86,-6.87 H 6.87 c -3.78,0 -6.87,3.09 -6.87,6.87 z"
         id="path1" />
    </g>
    <g
       id="number"
       transform="matrix(1.7576534,0,0,1.4645173,92.520017,172.02149)"
       style="fill:#000000">
      <text
         transform="scale(0.56453,1.05741)"
         font-family="'Bitstream Vera Serif'"
         font-weight="bold"
         font-size="43px"
         id="A"
         style="fill:#000000">A</text>
    </g>
    <g
       id="use1165"
       transform="matrix(-2.2222222,0,0,-1.8915511,129.85335,194.02149)">
      <path
         d="m 3.92,-7.93 c -1.67,0 -2.55,1.78 -3.01,3.56 -0.46,1.78 -0.5,3.56 -0.5,3.56 l -0.85,0.01 c 0,0 -0.16,-7.13 -3.5,-7.13 z"
         id="path2" />
      <path
         d="M 6.75,-0.8 C 6.74,2.67 1.53,5.19 0,7.93 -1.53,5.18 -6.74,2.66 -6.75,-0.8 c 0,-1.64 1.51,-2.97 3.38,-2.97 1.86,0 3.37,1.33 3.37,2.97 0,-1.64 1.51,-2.97 3.38,-2.97 1.87,0 3.37,1.33 3.37,2.97 z"
         id="path10" />
    </g>
  </g>
</svg>
